<?xml version="1.0" encoding="utf-8"?>
<!-- Generator: Adobe Illustrator 27.3.1, SVG Export Plug-In . SVG Version: 6.00 Build 0)  -->
<svg version="1.1" id="Layer_1" xmlns="http://www.w3.org/2000/svg" xmlns:xlink="http://www.w3.org/1999/xlink" x="0px" y="0px"
	 viewBox="0 0 38 40" style="enable-background:new 0 0 38 40;" xml:space="preserve">
<style type="text/css">
	.st0{fill-rule:evenodd;clip-rule:evenodd;fill:#34313F;}
</style>
<path class="st0" d="M28.6,15.7c-0.3-0.4-0.9-0.8-1.5-0.8c-1.2,0-2.1,0.9-2.1,2.2c0,1.3,0.9,2.2,2.1,2.2c0.6,0,1.1-0.2,1.4-0.5
	c0,0,0,0,0-0.1v-0.7c0,0,0-0.1-0.1-0.1h-1.6c-0.1,0-0.1-0.1-0.1-0.1v-1c0-0.1,0.1-0.1,0.1-0.1h2.9v-1.5l-0.9,0.5
	C28.7,15.8,28.6,15.7,28.6,15.7L28.6,15.7z M15.2,16.4h1.7c0.5,0,0.8-0.3,0.8-0.7c0-0.4-0.3-0.7-0.8-0.7h-1.7c0,0,0,0,0,0
	c0,0,0,0,0,0s0,0,0,0c0,0,0,0,0,0v1.2C15,16.3,15,16.3,15.2,16.4C15.1,16.4,15.1,16.4,15.2,16.4C15.1,16.4,15.1,16.4,15.2,16.4
	C15.1,16.4,15.1,16.4,15.2,16.4z M22.1,20.4C22.1,20.4,22,20.4,22.1,20.4l-1.3,0.1c-0.1,0-0.1,0-0.1-0.1v-6.5c0-0.1,0-0.1,0.1-0.1
	H22c0.1,0,0.1,0,0.1,0.1L22.1,20.4z M29.3,4.8l-12.4,9h0.3c1.3,0,2,0.8,2,1.7c0,0.7-0.4,1.2-0.9,1.4c-0.1,0-0.1,0.2,0,0.2
	c0.6,0.2,1,0.8,1,1.6c0,1-0.7,1.8-2,1.8h-3.6c0,0,0,0,0,0c0,0,0,0,0,0c0,0,0,0,0,0c0,0,0,0,0,0v-4.2l-9.2,6.7
	c-0.2,0.1-0.1,0.4,0.1,0.4h24.9c0.1,0,0.2-0.1,0.2-0.2v-3.4c-0.7,0.6-1.5,1-2.6,1c-2,0-3.6-1.4-3.6-3.5c0-2.1,1.6-3.5,3.6-3.5
	c1.3,0,2.1,0.6,2.6,1.2V4.9C29.7,4.8,29.4,4.7,29.3,4.8L29.3,4.8z M15.1,19.2h1.8c0.5,0,0.9-0.3,0.9-0.8c0-0.4-0.3-0.8-0.9-0.8h-1.8
	c0,0,0,0,0,0c0,0,0,0,0,0c0,0,0,0,0,0c0,0,0,0,0,0v1.3C15,19.1,15,19.1,15.1,19.2C15.1,19.1,15.1,19.1,15.1,19.2
	C15.1,19.2,15.1,19.2,15.1,19.2C15.1,19.2,15.1,19.2,15.1,19.2L15.1,19.2z M5.2,33.1l-0.5-0.3c0,0,0,0-0.1,0c0,0,0,0,0,0
	c-0.2,0.3-0.6,0.6-1,0.6c-0.8,0-1.4-0.7-1.4-1.5c0-0.9,0.6-1.5,1.4-1.5c0.4,0,0.8,0.2,1,0.6c0,0,0,0,0,0c0,0,0,0,0.1,0l0.5-0.3
	c0,0,0.1-0.1,0-0.1c-0.3-0.5-0.8-0.9-1.6-0.9c-1.2,0-2.2,0.9-2.2,2.2c0,1.3,1,2.2,2.2,2.2c0.8,0,1.3-0.4,1.6-0.9
	C5.2,33.2,5.2,33.1,5.2,33.1L5.2,33.1z M7.8,33.4c-0.8,0-1.4-0.7-1.4-1.5c0-0.9,0.5-1.5,1.4-1.5c0.8,0,1.4,0.7,1.4,1.5
	C9.2,32.8,8.6,33.4,7.8,33.4L7.8,33.4z M7.2,29.8c-0.9,0.2-1.5,1.1-1.5,2.1c0,1.3,0.9,2.2,2.1,2.2c1.1,0,1.9-0.7,2.1-1.7
	C10.2,30.8,8.8,29.3,7.2,29.8L7.2,29.8z M15.1,29.8h-1c0,0,0,0-0.1,0c0,0,0,0,0,0l-1.1,2.9l-1.2-2.9c0,0-0.1-0.1-0.1-0.1h-1
	c0,0-0.1,0-0.1,0.1V34c0,0,0,0.1,0.1,0.1h0.7c0,0,0.1,0,0.1-0.1v-3.2l1.3,3.3c0,0,0,0,0,0h0.3c0,0,0,0,0,0l1.3-3.3V34
	c0,0,0,0.1,0.1,0.1h0.7c0,0,0.1,0,0.1-0.1L15.1,29.8C15.2,29.8,15.1,29.8,15.1,29.8L15.1,29.8z M24.8,29.8H22c0,0-0.1,0-0.1,0.1V34
	c0,0,0,0.1,0.1,0.1h2.8c0,0,0.1,0,0.1-0.1v-0.5c0,0,0-0.1-0.1-0.1h-2c0,0-0.1,0-0.1-0.1v-1c0,0,0-0.1,0.1-0.1h2c0,0,0.1,0,0.1-0.1
	v-0.5c0,0,0-0.1-0.1-0.1h-2c0,0-0.1,0-0.1-0.1v-0.9c0,0,0-0.1,0.1-0.1h2c0,0,0.1,0,0.1-0.1L24.8,29.8C24.9,29.8,24.9,29.8,24.8,29.8
	L24.8,29.8z M27.8,31.8h-1c0,0-0.1,0-0.1-0.1v-1.2c0,0,0-0.1,0.1-0.1h1c0.4,0,0.7,0.3,0.7,0.7C28.5,31.5,28.2,31.8,27.8,31.8
	L27.8,31.8z M28.4,32.3c0.5-0.1,0.9-0.5,0.9-1.2c0-0.8-0.6-1.3-1.4-1.3H26c0,0-0.1,0-0.1,0.1V34c0,0,0,0.1,0.1,0.1h0.6
	c0,0,0.1,0,0.1-0.1v-1.4c0,0,0-0.1,0.1-0.1h0.6c0,0,0,0,0.1,0l0.9,1.5c0,0,0,0,0.1,0h0.7c0.1,0,0.1-0.1,0.1-0.1l-0.9-1.5
	C28.3,32.4,28.3,32.3,28.4,32.3L28.4,32.3z M35.3,30.4h2.1c0,0,0,0,0,0c0,0,0,0,0,0c0,0,0,0,0,0c0,0,0,0,0,0v-0.5c0,0,0-0.1-0.1-0.1
	h-2.8c0,0,0,0-0.1,0c0,0,0,0,0,0.1V34c0,0,0,0.1,0.1,0.1h2.8c0,0,0,0,0,0c0,0,0,0,0,0c0,0,0,0,0,0c0,0,0,0,0,0v-0.5c0,0,0,0,0,0
	c0,0,0,0,0,0c0,0,0,0,0,0c0,0,0,0,0,0h-2c0,0,0,0-0.1,0c0,0,0,0,0-0.1v-1c0,0,0-0.1,0.1-0.1h2c0,0,0,0,0,0c0,0,0,0,0,0s0,0,0,0
	c0,0,0,0,0,0v-0.5c0,0,0-0.1-0.1-0.1h-2c0,0,0,0,0,0c0,0,0,0,0,0c0,0,0,0,0,0c0,0,0,0,0,0L35.3,30.4C35.2,30.5,35.2,30.5,35.3,30.4
	C35.2,30.5,35.2,30.4,35.3,30.4C35.2,30.4,35.2,30.4,35.3,30.4C35.2,30.4,35.3,30.4,35.3,30.4L35.3,30.4z M33.6,33.1l-0.5-0.3
	c0,0-0.1,0-0.1,0c-0.2,0.3-0.6,0.6-1,0.6c-0.8,0-1.4-0.7-1.4-1.5c0-0.9,0.6-1.5,1.4-1.5c0.4,0,0.8,0.2,1,0.6c0,0,0.1,0,0.1,0
	l0.5-0.3c0,0,0.1-0.1,0-0.1c-0.3-0.5-0.8-0.9-1.6-0.9c-1.2,0-2.2,0.9-2.2,2.2c0,1.3,1,2.2,2.2,2.2c0.8,0,1.3-0.4,1.6-0.9
	C33.7,33.2,33.7,33.2,33.6,33.1C33.7,33.2,33.7,33.1,33.6,33.1C33.7,33.1,33.7,33.1,33.6,33.1C33.7,33.1,33.7,33.1,33.6,33.1
	L33.6,33.1z M20.7,29.8h-1c0,0,0,0-0.1,0c0,0,0,0,0,0l-1.1,2.9l-1.2-2.9c0,0-0.1-0.1-0.1-0.1h-1c0,0-0.1,0-0.1,0.1V34
	c0,0,0,0.1,0.1,0.1H17c0,0,0.1,0,0.1-0.1v-3.2l1.3,3.3c0,0,0,0,0,0h0.3c0,0,0,0,0,0l1.3-3.3V34c0,0,0,0.1,0.1,0.1h0.7
	c0,0,0.1,0,0.1-0.1L20.7,29.8C20.8,29.8,20.7,29.8,20.7,29.8L20.7,29.8z"/>
</svg>
