<?xml version="1.0" encoding="utf-8"?>
<!-- Generator: Adobe Illustrator 27.3.1, SVG Export Plug-In . SVG Version: 6.00 Build 0)  -->
<svg version="1.1" id="Layer_1" xmlns="http://www.w3.org/2000/svg" xmlns:xlink="http://www.w3.org/1999/xlink" x="0px" y="0px"
	 viewBox="0 0 38 40" style="enable-background:new 0 0 38 40;" xml:space="preserve">
<style type="text/css">
	.st0{fill:#83CD29;}
	.st1{fill:#404137;}
</style>
<g>
	<path class="st0" d="M24.8,24.2c0,0.3-0.2,0.5-0.5,0.5c-0.3,0-0.5-0.2-0.5-0.5c0-0.3,0.2-0.5,0.5-0.5
		C24.6,23.7,24.8,23.9,24.8,24.2z M23.9,24.2c0,0.2,0.2,0.4,0.4,0.4c0.2,0,0.4-0.2,0.4-0.4c0-0.2-0.2-0.4-0.4-0.4
		C24.1,23.7,23.9,23.9,23.9,24.2z M24.1,23.9h0.2c0.1,0,0.2,0,0.2,0.2c0,0.1-0.1,0.1-0.1,0.1c0.1,0,0.1,0.1,0.1,0.1c0,0,0,0.1,0,0.2
		h-0.1c0,0,0-0.2,0-0.2c0,0,0-0.1-0.1-0.1h-0.1v0.2h-0.1L24.1,23.9L24.1,23.9z M24.2,24.2L24.2,24.2c0.2,0,0.2-0.1,0.2-0.1
		c0-0.1-0.1-0.1-0.1-0.1h-0.1V24.2z"/>
	<path class="st1" d="M25.5,8.9c0,0-0.1,0-0.1,0c0,0-0.1,0-0.1,0.1c0,0,0,0.1,0,0.1v5.2c0,0.1,0,0.1-0.1,0.1c0,0,0,0-0.1,0
		c0,0,0,0-0.1,0L24.3,14c-0.1,0-0.1-0.1-0.2-0.1c-0.1,0-0.1,0-0.2,0.1l-3.4,2c-0.1,0.1-0.2,0.2-0.2,0.4v3.9c0,0.1,0,0.1,0.1,0.2
		c0,0.1,0.1,0.1,0.1,0.1l3.4,2c0.1,0,0.1,0.1,0.2,0.1c0.1,0,0.1,0,0.2-0.1l3.4-2c0.1,0,0.1-0.1,0.1-0.1c0-0.1,0.1-0.1,0.1-0.2v-9.8
		c0-0.1-0.1-0.3-0.2-0.4l-2-1.1C25.6,8.9,25.6,8.9,25.5,8.9L25.5,8.9z M3.9,13.8c-0.1,0-0.1,0-0.2,0l-3.4,2c-0.1,0-0.1,0.1-0.1,0.1
		c0,0.1-0.1,0.1-0.1,0.2l0,5.3c0,0.1,0,0.1,0.1,0.2c0.1,0,0.1,0,0.2,0l2-1.2c0.1-0.1,0.2-0.2,0.2-0.4v-2.5c0-0.1,0.1-0.3,0.2-0.4
		l0.9-0.5c0.1,0,0.1-0.1,0.2-0.1c0.1,0,0.1,0,0.2,0.1l0.9,0.5c0.1,0.1,0.2,0.2,0.2,0.4v2.5c0,0.1,0.1,0.3,0.2,0.4l2,1.2
		c0.1,0,0.1,0,0.2,0c0.1,0,0.1-0.1,0.1-0.2l0-5.3c0-0.1,0-0.1-0.1-0.2c0-0.1-0.1-0.1-0.1-0.1l-3.4-2C4,13.8,4,13.8,3.9,13.8
		L3.9,13.8L3.9,13.8z M34.1,13.8c-0.1,0-0.1,0-0.2,0.1l-3.4,2c-0.1,0.1-0.2,0.2-0.2,0.4v3.9c0,0.1,0.1,0.3,0.2,0.4l3.3,1.9
		c0.1,0.1,0.3,0.1,0.4,0l2-1.1c0.1,0,0.1-0.1,0.1-0.2c0-0.1,0-0.1-0.1-0.2L33,19c-0.1,0-0.1-0.1-0.1-0.2v-1.2c0-0.1,0-0.1,0.1-0.2
		l1.1-0.6c0.1,0,0.1,0,0.2,0l1.1,0.6c0,0,0.1,0,0.1,0.1c0,0,0,0.1,0,0.1v1c0,0,0,0.1,0,0.1c0,0,0,0.1,0.1,0.1c0.1,0,0.1,0,0.2,0
		l2-1.2c0.1-0.1,0.2-0.2,0.2-0.4v-0.9c0-0.1,0-0.1-0.1-0.2c0-0.1-0.1-0.1-0.1-0.1l-3.4-2C34.3,13.9,34.2,13.8,34.1,13.8L34.1,13.8z
		 M24.1,16.8C24.1,16.8,24.1,16.8,24.1,16.8l1.2,0.7c0,0,0.1,0.1,0.1,0.1v1.3c0,0,0,0.1-0.1,0.1l-1.2,0.7c0,0-0.1,0-0.1,0L22.9,19
		c0,0-0.1-0.1-0.1-0.1v-1.3c0,0,0-0.1,0.1-0.1L24.1,16.8C24,16.8,24,16.8,24.1,16.8L24.1,16.8L24.1,16.8z"/>
	<path class="st0" d="M14,13.8c-0.1,0-0.1,0-0.2,0.1l-3.4,2c-0.1,0.1-0.2,0.2-0.2,0.4v3.9c0,0.1,0,0.1,0.1,0.2
		c0,0.1,0.1,0.1,0.1,0.1l3.4,2c0.1,0,0.1,0.1,0.2,0.1c0.1,0,0.1,0,0.2-0.1l3.4-2c0.1,0,0.1-0.1,0.1-0.1c0-0.1,0.1-0.1,0.1-0.2v-3.9
		c0-0.1-0.1-0.3-0.2-0.4l-3.4-2C14.1,13.8,14.1,13.8,14,13.8L14,13.8z M34.1,17.3C34.1,17.3,34.1,17.3,34.1,17.3l-0.7,0.4
		c0,0,0,0,0,0s0,0,0,0v0.7c0,0,0,0.1,0,0.1l0.6,0.4c0,0,0,0,0,0c0,0,0,0,0,0l0.6-0.4c0,0,0,0,0-0.1v-0.7c0,0,0-0.1,0-0.1L34.1,17.3
		C34.2,17.3,34.2,17.3,34.1,17.3L34.1,17.3z"/>
	<path class="st0" d="M19,22.4c-0.1,0-0.2,0-0.3,0.1l-3.2,1.9c-0.2,0.1-0.3,0.3-0.3,0.6v3.7c0,0.2,0.1,0.5,0.3,0.6l0.8,0.5
		c0.4,0.2,0.6,0.2,0.7,0.2c0.6,0,0.9-0.4,0.9-1v-3.6c0-0.1,0-0.1-0.1-0.1h-0.4c-0.1,0-0.1,0-0.1,0.1v3.6c0,0.3-0.3,0.6-0.8,0.3
		l-0.9-0.5c0,0-0.1,0-0.1-0.1v-3.7c0,0,0-0.1,0.1-0.1l3.2-1.8c0,0,0.1,0,0.1,0l3.2,1.8c0,0,0.1,0.1,0.1,0.1v3.7c0,0,0,0.1,0,0.1
		l-3.2,1.8c0,0-0.1,0-0.1,0L18.2,30c0,0-0.1,0-0.1,0c-0.2,0.1-0.3,0.1-0.5,0.2c-0.1,0-0.1,0,0,0.1l1.1,0.6c0.1,0.1,0.2,0.1,0.3,0.1
		c0.1,0,0.2,0,0.3-0.1l3.2-1.8c0.2-0.1,0.3-0.3,0.3-0.6v-3.7c0-0.2-0.1-0.5-0.3-0.6l-3.2-1.9C19.3,22.4,19.1,22.4,19,22.4L19,22.4z
		 M19.9,25c-0.9,0-1.4,0.4-1.4,1c0,0.7,0.5,0.9,1.4,1c1,0.1,1.1,0.3,1.1,0.5c0,0.4-0.3,0.5-1,0.5c-0.8,0-1-0.2-1.1-0.6
		c0,0,0-0.1-0.1-0.1h-0.4c0,0,0,0-0.1,0c0,0,0,0,0,0.1c0,0.5,0.3,1.2,1.7,1.2c1,0,1.6-0.4,1.6-1.1c0-0.7-0.5-0.9-1.4-1
		c-1-0.1-1.1-0.2-1.1-0.4c0-0.2,0.1-0.4,0.8-0.4c0.7,0,0.9,0.1,1,0.6c0,0,0,0.1,0.1,0.1h0.4c0,0,0,0,0.1,0c0,0,0,0,0-0.1
		C21.4,25.4,20.9,25,19.9,25L19.9,25z"/>
</g>
</svg>
