<?xml version="1.0" encoding="utf-8"?>
<!-- Generator: Adobe Illustrator 27.3.1, SVG Export Plug-In . SVG Version: 6.00 Build 0)  -->
<svg version="1.1" id="Layer_1" xmlns="http://www.w3.org/2000/svg" xmlns:xlink="http://www.w3.org/1999/xlink" x="0px" y="0px"
	 viewBox="0 0 38 40" style="enable-background:new 0 0 38 40;" xml:space="preserve">
<style type="text/css">
	.st0{fill:#7F54B3;}
	.st1{fill:#FFFFFF;}
	.st2{fill:#261C1C;fill-opacity:0.93;}
</style>
<g>
	<path class="st0" d="M8.8,6.8h23.3c0.4,0,0.7,0.1,1,0.2c0.3,0.1,0.6,0.3,0.9,0.6c0.2,0.2,0.4,0.5,0.6,0.9c0.1,0.3,0.2,0.7,0.2,1
		v8.9c0,0.7-0.3,1.4-0.8,1.9c-0.5,0.5-1.2,0.8-1.9,0.8h-8.4l1.1,2.8l-5-2.8h-11c-0.7,0-1.4-0.3-1.9-0.8c-0.5-0.5-0.8-1.2-0.8-1.9
		V9.4c0-0.4,0.1-0.7,0.2-1c0.1-0.3,0.3-0.6,0.6-0.9C7.2,7.3,7.5,7.1,7.8,7C8.1,6.8,8.4,6.8,8.8,6.8z"/>
	<path class="st1" d="M7.6,9.2C7.7,9.1,7.8,9,7.9,8.9C8,8.9,8.2,8.8,8.3,8.8c0.6,0,0.9,0.2,1,0.9c0.4,2.4,0.8,4.5,1.2,6.2l2.6-4.9
		c0.2-0.4,0.5-0.7,0.9-0.7c0.5,0,0.8,0.3,1,1c0.2,1.4,0.6,2.7,1.1,4c0.3-3,0.8-5.1,1.5-6.4c0.1-0.1,0.2-0.3,0.3-0.4s0.3-0.1,0.5-0.2
		c0.3,0,0.5,0.1,0.7,0.2c0.1,0.1,0.2,0.2,0.3,0.3c0.1,0.1,0.1,0.2,0.1,0.4c0,0.2,0,0.4-0.1,0.6c-0.5,0.9-0.8,2.3-1.1,4.2
		c-0.3,1.5-0.4,2.9-0.3,4.4c0,0.3,0,0.5-0.1,0.8c-0.1,0.1-0.1,0.2-0.3,0.3c-0.1,0.1-0.2,0.1-0.4,0.1c-0.2,0-0.4,0-0.5-0.1
		c-0.2-0.1-0.3-0.2-0.4-0.3c-1.1-1.1-2-2.8-2.6-5c-0.8,1.5-1.3,2.6-1.7,3.4c-0.7,1.3-1.3,2-1.8,2c-0.3,0-0.6-0.2-0.8-0.8
		c-0.6-1.5-1.2-4.5-1.9-8.9C7.3,9.7,7.4,9.4,7.6,9.2z"/>
	<path class="st1" d="M32.7,11c-0.2-0.4-0.5-0.7-0.8-0.9c-0.3-0.2-0.7-0.4-1.1-0.5c-0.2,0-0.4-0.1-0.6-0.1c-1.1,0-2,0.6-2.8,1.8
		c-0.6,1-0.9,2.1-0.9,3.3c0,0.8,0.2,1.6,0.6,2.3c0.2,0.4,0.5,0.7,0.8,0.9c0.3,0.2,0.7,0.4,1.1,0.5c0.2,0,0.4,0.1,0.6,0.1
		c1.1,0,2-0.6,2.8-1.8c0.6-1,0.9-2.1,0.9-3.3C33.3,12.5,33.1,11.7,32.7,11L32.7,11z M31.3,14.3c-0.1,0.7-0.4,1.3-0.9,1.7
		c-0.1,0.1-0.3,0.2-0.4,0.3c-0.2,0.1-0.3,0.1-0.5,0.1c-0.3-0.1-0.5-0.3-0.7-0.8c-0.1-0.3-0.2-0.7-0.2-1.1c0-0.3,0-0.6,0.1-0.9
		c0.1-0.5,0.3-1,0.6-1.4c0.4-0.6,0.8-0.8,1.2-0.7c0.3,0.1,0.5,0.3,0.7,0.8c0.1,0.3,0.2,0.7,0.2,1.1C31.4,13.7,31.3,14,31.3,14.3
		L31.3,14.3z"/>
	<path class="st1" d="M25.4,11c-0.2-0.4-0.5-0.7-0.8-0.9c-0.3-0.2-0.7-0.4-1.1-0.5c-0.2,0-0.4-0.1-0.6-0.1c-1.1,0-2,0.6-2.8,1.8
		c-0.6,1-0.9,2.1-0.9,3.3c0,0.8,0.2,1.6,0.6,2.3c0.2,0.4,0.5,0.7,0.8,0.9c0.3,0.2,0.7,0.4,1.1,0.5c0.2,0,0.4,0.1,0.6,0.1
		c1.1,0,2-0.6,2.8-1.8c0.6-1,0.9-2.1,0.9-3.3C26,12.5,25.8,11.7,25.4,11z M23.9,14.3c-0.1,0.7-0.4,1.3-0.9,1.7
		c-0.1,0.1-0.3,0.2-0.4,0.3c-0.2,0.1-0.3,0.1-0.5,0.1c-0.3-0.1-0.5-0.3-0.7-0.8c-0.1-0.3-0.2-0.7-0.2-1.1c0-0.3,0-0.6,0.1-0.9
		c0.1-0.5,0.3-1,0.6-1.4c0.4-0.6,0.8-0.8,1.2-0.7c0.3,0.1,0.5,0.3,0.7,0.8c0.1,0.3,0.2,0.7,0.2,1.1C24,13.7,24,14,23.9,14.3
		L23.9,14.3z"/>
	<path class="st2" d="M0.9,28.2c-0.3,0.3-0.5,0.6-0.6,0.9c-0.1,0.4-0.2,0.7-0.2,1.1c0,0.4,0,0.8,0.2,1.2c0.1,0.4,0.4,0.7,0.6,1
		c0.3,0.3,0.6,0.5,1,0.6c0.4,0.1,0.8,0.2,1.1,0.2c0.3,0,0.6,0,0.9-0.1v-1.3c-0.2,0.1-0.5,0.1-0.7,0.1c-0.2,0-0.4,0-0.6-0.1
		c-0.2-0.1-0.3-0.2-0.5-0.3c-0.3-0.3-0.4-0.7-0.4-1.2s0.1-0.8,0.4-1.2c0.1-0.1,0.3-0.3,0.4-0.3c0.2-0.1,0.4-0.1,0.5-0.1
		c0.3,0,0.6,0,0.8,0.1v-1.3c-0.3-0.1-0.6-0.1-0.9-0.1c-0.4,0-0.8,0-1.1,0.2C1.5,27.7,1.2,27.9,0.9,28.2z M6.6,27.4
		c-0.3,0-0.7,0-1,0.2c-0.3,0.1-0.6,0.3-0.8,0.6c-0.4,0.5-0.6,1.2-0.6,2.1c0,1,0.2,1.7,0.6,2.2c0.2,0.3,0.5,0.5,0.8,0.6
		c0.3,0.1,0.7,0.2,1,0.2c0.3,0,0.7,0,1-0.2c0.3-0.1,0.6-0.3,0.8-0.6c0.4-0.5,0.6-1.2,0.6-2.2c0-0.9-0.2-1.7-0.6-2.2
		c-0.2-0.3-0.5-0.5-0.8-0.6C7.3,27.4,6.9,27.3,6.6,27.4L6.6,27.4z M7.2,31.6c-0.1,0.1-0.2,0.2-0.3,0.3C6.9,31.9,6.7,32,6.6,32
		c-0.1,0-0.2,0-0.3-0.1c-0.1-0.1-0.2-0.1-0.3-0.3c-0.1-0.2-0.2-0.7-0.2-1.4c0-1.1,0.3-1.6,0.8-1.6c0.5,0,0.9,0.5,0.9,1.6
		C7.5,30.9,7.4,31.4,7.2,31.6L7.2,31.6z M13.1,27.5l-0.3,1.3c-0.1,0.3-0.1,0.6-0.2,1l-0.2,0.9c-0.2-0.9-0.4-1.9-0.6-3.1H9.9
		l-0.7,5.6h1.4l0.4-3.8l1,3.8h1l0.9-3.8l0.4,3.8h1.5l-0.8-5.6L13.1,27.5z M20,27.5l-0.3,1.3c-0.1,0.3-0.1,0.6-0.2,1l-0.2,0.9
		c-0.2-0.9-0.4-1.9-0.6-3.1h-1.9l-0.7,5.6h1.4l0.4-3.8l1,3.8h1l0.9-3.8l0.4,3.8h1.5l-0.8-5.6L20,27.5z M24.6,30.9h1.3v-1.1h-1.3v-1
		h1.5v-1.2h-3v5.6h3.1v-1.2h-1.5V30.9z M30.4,30c0.2-0.3,0.3-0.7,0.2-1.1c-0.1-0.4-0.3-0.7-0.6-0.9c-0.5-0.3-1.1-0.5-1.7-0.5h-1.8
		v5.6h1.5v-2.5h0l1.2,2.5h1.6l-1.2-2.5C30,30.5,30.2,30.3,30.4,30z M28,29.9v-1.3c0.3,0,0.5,0,0.8,0.2c0.1,0.1,0.1,0.2,0.2,0.3
		c0,0.1,0.1,0.2,0,0.3C29,29.7,28.7,29.9,28,29.9z M31.5,28.2c-0.3,0.3-0.5,0.6-0.6,0.9c-0.1,0.4-0.2,0.7-0.2,1.1
		c0,0.4,0,0.8,0.2,1.2c0.1,0.4,0.4,0.7,0.6,1c0.3,0.3,0.6,0.5,1,0.6c0.4,0.1,0.8,0.2,1.1,0.2c0.3,0,0.6,0,0.9-0.1v-1.3
		c-0.2,0.1-0.5,0.1-0.7,0.1c-0.2,0-0.4,0-0.6-0.1c-0.2-0.1-0.3-0.2-0.5-0.3c-0.3-0.3-0.4-0.7-0.4-1.2s0.1-0.8,0.4-1.2
		c0.1-0.1,0.3-0.3,0.4-0.3c0.2-0.1,0.4-0.1,0.5-0.1c0.3,0,0.6,0,0.8,0.1v-1.3c-0.3-0.1-0.6-0.1-0.9-0.1c-0.4,0-0.8,0-1.1,0.2
		C32.1,27.7,31.7,27.9,31.5,28.2z M36.4,31.9v-1h1.3v-1.1h-1.3v-1h1.6v-1.2h-3v5.6h3v-1.2L36.4,31.9L36.4,31.9z"/>
</g>
</svg>
