<?xml version="1.0" encoding="utf-8"?>
<!-- Generator: Adobe Illustrator 27.3.1, SVG Export Plug-In . SVG Version: 6.00 Build 0)  -->
<svg version="1.1" id="Layer_1" xmlns="http://www.w3.org/2000/svg" xmlns:xlink="http://www.w3.org/1999/xlink" x="0px" y="0px"
	 viewBox="0 0 38 40" style="enable-background:new 0 0 38 40;" xml:space="preserve">
<style type="text/css">
	.st0{fill:#95BF47;}
	.st1{fill:#5E8E3E;}
	.st2{fill:#FFFFFF;}
</style>
<g>
	<g>
		<path class="st0" d="M25.5,7.4c0,0,0-0.1-0.1-0.1c0,0-0.1,0-0.1-0.1c-0.1,0-1.6-0.1-1.6-0.1L22.6,6c-0.1-0.1-0.3-0.1-0.4-0.1
			c0,0-0.2,0.1-0.6,0.2c-0.3-1-1-1.9-2-1.9h-0.1c-0.3-0.4-0.7-0.6-1-0.6c-2.5,0-3.7,3.2-4.1,4.8l-1.8,0.5C12,9.1,12,9.1,11.9,9.6
			L10.4,21l11.1,2.1l6-1.3C27.6,21.8,25.5,7.5,25.5,7.4L25.5,7.4z M20.9,6.3c-0.3,0.1-0.6,0.2-0.9,0.3V6.4c0-0.5-0.1-1-0.2-1.5
			C20.3,4.9,20.7,5.6,20.9,6.3z M19.1,5c0.2,0.5,0.3,1.1,0.3,1.7v0.1l-1.9,0.6C17.8,5.9,18.5,5.2,19.1,5L19.1,5z M18.3,4.3
			c0.1,0,0.2,0,0.3,0.1c-0.8,0.4-1.7,1.3-2,3.2l-1.5,0.5C15.5,6.6,16.5,4.3,18.3,4.3L18.3,4.3z"/>
		<path class="st1" d="M25.3,7.2c-0.1,0-1.6-0.1-1.6-0.1L22.6,6c0,0-0.1-0.1-0.2-0.1l-0.8,17.2l6-1.3L25.5,7.4
			C25.4,7.3,25.4,7.2,25.3,7.2L25.3,7.2z"/>
		<path class="st2" d="M19.5,10.6l-0.7,2.2c-0.5-0.2-0.9-0.3-1.5-0.3c-1.2,0-1.2,0.7-1.2,0.9c0,1,2.6,1.4,2.6,3.8
			c0,1.9-1.2,3.1-2.8,3.1C14,20.2,13,19,13,19l0.5-1.7c0,0,1,0.9,1.9,0.9c0.1,0,0.2,0,0.3,0c0.1,0,0.2-0.1,0.3-0.2
			c0.1-0.1,0.1-0.2,0.2-0.3c0-0.1,0.1-0.2,0.1-0.3c0-1.3-2.2-1.4-2.2-3.5c0-1.8,1.3-3.6,4-3.6C19,10.3,19.5,10.6,19.5,10.6
			L19.5,10.6z"/>
	</g>
	<g>
		<path d="M4.1,30c-0.4-0.2-0.7-0.4-0.7-0.7c0-0.3,0.3-0.6,0.8-0.6c0.4,0,0.7,0.1,1.1,0.2l0.4-1.2c0,0-0.4-0.3-1.4-0.3
			c-1.5,0-2.5,0.9-2.5,2.1c0,0.7,0.5,1.2,1.1,1.6c0.5,0.3,0.7,0.5,0.7,0.8s-0.3,0.6-0.7,0.6c-0.7,0-1.4-0.4-1.4-0.4L1,33.4
			c0,0,0.6,0.4,1.7,0.4c1.5,0,2.6-0.8,2.6-2.1C5.3,30.9,4.8,30.4,4.1,30L4.1,30z M10.2,27.5c-0.8,0-1.3,0.4-1.8,0.9l0,0L9,25H7.3
			l-1.7,8.7h1.7l0.6-3c0.2-1.1,0.8-1.8,1.3-1.8c0.4,0,0.5,0.3,0.5,0.6c0,0.3,0,0.5-0.1,0.8l-0.6,3.4h1.7l0.7-3.5
			c0.1-0.4,0.1-0.7,0.1-1.1C11.6,28.1,11.1,27.5,10.2,27.5L10.2,27.5z M15.4,27.5c-2.1,0-3.4,1.9-3.4,3.9c0,1.3,0.8,2.4,2.3,2.4
			c2,0,3.4-1.8,3.4-3.9C17.8,28.7,17,27.5,15.4,27.5L15.4,27.5z M14.6,32.5c-0.6,0-0.8-0.5-0.8-1.1c0-1,0.5-2.6,1.4-2.6
			c0.6,0,0.8,0.5,0.8,1C16,30.9,15.5,32.5,14.6,32.5L14.6,32.5z M22.1,27.5c-1.2,0-1.8,1-1.8,1h0l0.1-0.9h-1.5l-0.3,2.3l-1.2,6.2H19
			l0.5-2.5h0c0,0,0.3,0.2,1,0.2c2,0,3.3-2.1,3.3-4.1C23.9,28.5,23.4,27.5,22.1,27.5L22.1,27.5z M20.5,32.5c-0.3,0-0.5-0.1-0.7-0.2
			l0.3-1.6c0.2-1.1,0.8-1.8,1.3-1.8c0.5,0,0.7,0.5,0.7,0.9C22.1,31,21.4,32.5,20.5,32.5L20.5,32.5z M26.3,25.1
			c-0.3,0-0.5,0.1-0.7,0.3c-0.2,0.2-0.3,0.4-0.3,0.7c0,0.5,0.3,0.9,0.8,0.9h0c0.1,0,0.3,0,0.4-0.1c0.1,0,0.2-0.1,0.3-0.2
			c0.1-0.1,0.2-0.2,0.2-0.3c0-0.1,0.1-0.3,0.1-0.4C27.2,25.4,26.8,25.1,26.3,25.1L26.3,25.1z M23.9,33.7h1.7l1.2-6h-1.7L23.9,33.7z
			 M31.1,27.6h-1.2l0.1-0.3c0.1-0.6,0.4-1.1,1-1.1c0.2,0,0.4,0,0.5,0.1l0.3-1.3c0,0-0.3-0.1-0.9-0.1c-0.6,0-1.2,0.2-1.7,0.6
			c-0.6,0.5-0.9,1.2-1,1.9l-0.1,0.3h-0.8l-0.2,1.3H28l-0.9,4.8h1.7l0.9-4.8h1.2L31.1,27.6L31.1,27.6z M35.2,27.6l-1.5,4.2h0
			l-0.4-4.2h-1.8l1,5.5c0,0.1,0,0.2,0,0.3c-0.2,0.4-0.5,0.8-0.9,1c-0.3,0.2-0.6,0.4-1,0.5l0.5,1.4c0.6-0.2,1.2-0.5,1.7-0.9
			c0.8-0.7,1.5-1.9,2.2-3.4l2.1-4.5L35.2,27.6L35.2,27.6z"/>
	</g>
</g>
</svg>
