<svg xmlns="http://www.w3.org/2000/svg" version="1.1" xmlns:xlink="http://www.w3.org/1999/xlink" width="512" height="512" x="0" y="0" viewBox="0 0 510 510" style="enable-background:new 0 0 512 512" xml:space="preserve" fill-rule="evenodd" class=""><g><path d="M448.341 503H62.176a8 8 0 0 1-8-8v-53.234a8 8 0 0 1 8-8h40.271v-45.234a8 8 0 0 1 8-8h40.271v-45.234a8 8 0 0 1 8-8h40.27v-45.235a8 8 0 0 1 8-8h96.541a8 8 0 0 1 8 8v45.235H351.8a8 8 0 0 1 8 8v45.234h40.271a8 8 0 0 1 8 8v45.234h40.27a8 8 0 0 1 8 8V495a8 8 0 0 1-8 8zm-297.623-53.234H70.176V487h80.542zm48.27-53.234h-80.541v37.234h80.541zm48.271-53.234h-80.541v37.234h80.541zm48.27-16v-37.235h-80.541v37.235zm48.271 53.234v-37.234h-80.541v37.234zm48.271 53.234v-37.234h-80.542v37.234zM359.8 487h80.541v-37.234H359.8zm-96.541 0H343.8v-37.234h-80.541zm-96.541 0h80.541v-37.234h-80.541zm48.27-90.468v37.234h80.541v-37.234zm-31.076-213.26-7.932-3.396c-11.866-5.085-18.717-16.951-17.202-29.754l.001-.009 1.847-15.452.003-.025c.319-2.599-.103-4.893-1.264-7.221l-7.007-13.857c-5.847-11.514-3.47-25.013 5.95-33.856l11.344-10.641.014-.014c1.905-1.778 3.063-3.794 3.65-6.318l.004-.017 3.56-15.149c2.924-12.561 13.423-21.372 26.308-22.094h.006l15.533-.859c2.603-.143 4.797-.929 6.86-2.484l.018-.014 12.461-9.338.015-.012c10.346-7.715 24.009-7.715 34.355 0l.016.012 12.455 9.335c2.088 1.561 4.27 2.358 6.883 2.501l15.534.859h.005c12.886.722 23.385 9.533 26.304 22.077l3.564 15.166.004.017c.588 2.524 1.745 4.54 3.65 6.318l.015.014 11.343 10.641c9.421 8.843 11.797 22.342 5.957 33.843l-7.021 13.887c-1.156 2.322-1.575 4.612-1.257 7.204l.003.025 1.847 15.452.001.009c1.515 12.806-5.306 24.672-17.204 29.756l-7.929 3.394 22.14 47.575c1.684 3.514 1.229 7.297-1.07 10.22-2.275 3.015-5.76 4.394-9.521 3.715l-22.376-3.903-11.426 19.621c-1.826 3.194-5.137 5.064-8.901 4.925-3.74-.139-6.84-2.136-8.503-5.599l-.04-.086-21.836-46.9-6.157-1.859-.04-.012c-2.459-.757-4.776-.757-7.235 0l-.04.012-6.156 1.859-21.808 46.839c-1.573 3.484-4.783 5.605-8.572 5.746-3.761.139-7.07-1.728-8.891-4.909l-11.415-19.637-22.397 3.904c-3.779.679-7.274-.714-9.512-3.705-2.301-2.954-2.752-6.699-1.105-10.175zm129.423 9.405-7.221 11.041c-5.032 7.701-12.985 12.283-21.612 12.945l11.935 25.636 8.318-14.284a8.001 8.001 0 0 1 8.288-3.855l16.264 2.837zm-87.319 23.986c-8.628-.662-16.58-5.243-21.61-12.942l-7.223-11.044L181.209 227l16.293-2.84a7.999 7.999 0 0 1 8.289 3.861l8.294 14.267zm36.856-191.074-.016-.012c-4.582-3.407-10.627-3.404-15.207.009l-12.43 9.316c-4.7 3.543-9.686 5.359-15.612 5.684l-15.525.858c-5.688.319-10.328 4.202-11.618 9.746l-.004.017-3.56 15.148c-1.338 5.749-3.978 10.34-8.302 14.375l-11.34 10.638c-4.158 3.904-5.215 9.862-2.634 14.945l.006.013 7.024 13.891.016.032c2.632 5.264 3.561 10.458 2.843 16.311l-1.846 15.444c-.67 5.665 2.364 10.915 7.615 13.166l14.252 6.1c5.45 2.31 9.499 5.729 12.747 10.674l.009.013 8.509 13.01c3.127 4.786 8.809 6.837 14.281 5.195l14.889-4.496c5.634-1.727 10.945-1.727 16.579 0l14.889 4.496c5.473 1.642 11.155-.409 14.282-5.195l8.508-13.01.009-.013c3.248-4.945 7.298-8.364 12.721-10.662l14.281-6.113.005-.003c5.265-2.249 8.277-7.499 7.607-13.162l-1.843-15.419c-.721-5.878.208-11.072 2.84-16.336l.017-.032 7.023-13.891.007-.013c2.581-5.083 1.524-11.041-2.635-14.945l-11.325-10.624c-4.338-4.049-6.979-8.64-8.312-14.372l-3.564-15.165-.004-.017c-1.291-5.544-5.931-9.427-11.619-9.746l-15.521-.858c-5.919-.325-10.864-2.129-15.592-5.666l-.005-.005zm-7.599 154.552c-37.603 0-68.281-30.677-68.281-68.281 0-37.603 30.678-68.281 68.281-68.281 37.572 0 68.252 30.677 68.252 68.281 0 37.605-30.68 68.281-68.252 68.281zm0-16c28.766 0 52.252-23.49 52.252-52.281s-23.486-52.281-52.252-52.281c-28.792 0-52.281 23.489-52.281 52.281s23.489 52.281 52.281 52.281zm-15.268-70.395 4.152-12.777a11.675 11.675 0 0 1 22.204 0l4.151 12.777h13.435a11.675 11.675 0 0 1 6.861 21.117l-10.869 7.897 4.152 12.777a11.672 11.672 0 0 1-4.241 13.051 11.672 11.672 0 0 1-13.723 0l-10.868-7.897-10.869 7.897a11.672 11.672 0 0 1-17.963-13.051l4.151-12.777-10.869-7.897a11.673 11.673 0 0 1 6.862-21.117zm-.118 16 2.639 1.917a11.674 11.674 0 0 1 4.24 13.051l-1.007 3.103 2.638-1.918a11.675 11.675 0 0 1 13.723 0l2.639 1.918-1.008-3.103a11.672 11.672 0 0 1 4.241-13.051l2.638-1.917h-3.261c-5.058 0-9.54-3.256-11.102-8.066l-1.008-3.102-1.008 3.102a11.673 11.673 0 0 1-11.102 8.066zm223.653 40.378-37.704-44.417-37.704 44.417h12.289a8 8 0 0 1 8 8v124.905c0 4.415-3.585 8-8 8s-8-3.585-8-8V166.124h-14.122c-4.616 0-8.493-2.497-10.406-6.667-1.904-4.124-1.29-8.752 1.701-12.218l47.502-55.96c2.213-2.632 5.213-4.051 8.74-4.051 3.43 0 6.43 1.368 8.692 3.995l.037.043 47.53 55.994c2.941 3.454 3.563 8.079 1.662 12.197-1.919 4.185-5.825 6.667-10.384 6.667h-14.144v77.695c0 4.415-3.585 8-8 8s-8-3.585-8-8v-85.695a8 8 0 0 1 8-8zm-20.311 113.3c0-4.415 3.585-8 8-8s8 3.585 8 8v19.605c0 4.415-3.585 8-8 8s-8-3.585-8-8zm0 39.21c0-4.415 3.585-8 8-8s8 3.585 8 8v19.605c0 4.415-3.585 8-8 8s-8-3.585-8-8zm-34.808 19.605c0 4.415-3.585 8-8 8s-8-3.585-8-8v-19.605c0-4.415 3.585-8 8-8s8 3.585 8 8zm-296.884-79.754-32.343-38.102-32.344 38.102h9.426a8 8 0 0 1 8 8v77.341c0 4.415-3.585 8-8 8s-8-3.585-8-8v-69.341H36.291c-4.425 0-8.217-2.409-10.08-6.47-1.845-3.998-1.24-8.487 1.607-11.833l42.903-50.542.037-.043c2.195-2.549 5.107-3.877 8.436-3.877 3.423 0 6.335 1.379 8.483 3.933l42.832 50.459c2.935 3.373 3.542 7.884 1.687 11.902-1.856 4.047-5.62 6.471-10.1 6.471h-11.965v104.728c0 4.416-3.585 8-8 8s-8-3.584-8-8V250.485a8 8 0 0 1 8-8zM48.276 345.52c0-4.416 3.585-8 8-8s8 3.584 8 8v17.693c0 4.416-3.585 8-8 8s-8-3.584-8-8zm0 35.387c0-4.415 3.585-8 8-8s8 3.585 8 8v17.694c0 4.415-3.585 8-8 8s-8-3.585-8-8z" fill="#2569e6" opacity="1" data-original="#000000" class=""></path></g></svg>