<svg xmlns="http://www.w3.org/2000/svg" version="1.1" xmlns:xlink="http://www.w3.org/1999/xlink" width="512" height="512" x="0" y="0" viewBox="0 0 100 100" style="enable-background:new 0 0 512 512" xml:space="preserve"><g><path d="M94.2 59.94 87.46 48.5c-1.42-2.65-.3-3.47-.71-5.92a32.36 32.36 0 0 0-28.66-28.7 1.8 1.8 0 0 0-1.94 1.84v15.22a4.21 4.21 0 0 0 6.63 3.47c2.25-1.63 5.82.2 5.82 3.27a3.78 3.78 0 0 1-5.92 3.16 4.2 4.2 0 0 0-6.53 3.58v9.91h-4.38a4.15 4.15 0 0 0-3.37 6.53c1.63 2.15-.2 5.62-3.16 5.62s-4.79-3.48-3.16-5.62a4.17 4.17 0 0 0-3.47-6.53H25.35a1.8 1.8 0 0 0-1.73 2.34 35.71 35.71 0 0 0 5.1 9.2c3 4.18 5.3 7.55 4.18 12.76l-3.36 14.2c-.62 2.24 2.85 3.06 3.46.82l3.37-14.2c1.53-6.84-1.63-11.34-4.69-15.63A43.91 43.91 0 0 1 28 57.9h10.6c.41 0 .82.51.61.82-3.46 4.49.11 11.33 6 11.33s9.38-6.84 6-11.33c-.21-.21 0-.82.51-.82h17.79a1.79 1.79 0 0 0 0-3.57h-9.79v-9.91a.63.63 0 0 1 .92-.61c4.49 3.37 11.53-.11 11.53-6.13s-7-9.6-11.43-6.23c-.51.31-1 .1-1-.51V17.76A28.73 28.73 0 0 1 83.18 43c.41 3.06-.82 3.57 1.22 7.35l6.74 11.54c.71.92-.31 2.35-1.43 2.35h-2.35a5.21 5.21 0 0 0-5.36 5.2v12a3.31 3.31 0 0 1-3.37 3.27h-8.4a6.79 6.79 0 0 0-6.63 5l-.92 3C62 95 65.43 96 66.05 93.75l.95-3.07a3.4 3.4 0 0 1 3.27-2.45h8.36a6.93 6.93 0 0 0 6.94-6.84v-12a1.62 1.62 0 0 1 1.73-1.63h2.45c4 0 6.73-4.7 4.49-7.87ZM28.31 44.11 32 41.25c.41-.2 1.12-.71 1.12.11a7.1 7.1 0 0 0 11.33 5 7.09 7.09 0 0 0 1.32-9.8 7.31 7.31 0 0 0-3.26-2.35c-.92-.31.1-1 .41-1.43l3.46-2.56A4.25 4.25 0 0 0 47 24.5l-3.06-4.08c-.31-.31 0-.61.51-.72a7 7 0 0 0 4.87-11.33C46 4 39.43 5.1 37.18 10.31c-.71.71-.61.61-1.22-.21L33.1 6.53a4.1 4.1 0 0 0-5.5-.82l-4.18 3.17a4.1 4.1 0 0 0 1.22 7 3.58 3.58 0 0 1 1 6.12 3.61 3.61 0 0 1-5.61-2.35 4 4 0 0 0-6.53-3.06l-3.87 3a4 4 0 0 0-.82 5.72l2.55 3.58c.61.71 0 1.22-.81 1.43a7 7 0 0 0-4.06 11.14c3.46 4.59 10 3.27 12.34-2.15 0-.3.4-.3.61 0l3.16 4a4 4 0 0 0 5.71.81Zm-6.83-7.76c-1.94-1.53-5.51-.71-6 1.84-1.22 2.65-4.38 3.47-6.12 1.12a3.5 3.5 0 0 1 2.35-5.61 4 4 0 0 0 3.46-5.83l-1-1.32-2.45-3.27c-.21-.31-.21-.61 0-.72l4.08-3.16c.51-.41.71 0 .71.51a7.08 7.08 0 1 0 9.38-7.35c-.51-.21-.61-.52-.2-.92l4-3a.61.61 0 0 1 .71 0l4 4.91c2 2.35 5.51.61 6.12-1.84 1.12-2.66 4.38-3.47 6.12-1.23A3.44 3.44 0 0 1 44 16.13a4 4 0 0 0-2.86 6.54l3 4a.63.63 0 0 1 .1.61l-4.89 4a4.08 4.08 0 0 0 1.93 6.34 3.48 3.48 0 1 1-4.59 3.67 4 4 0 0 0-5.81-3.47l-4.69 3.47c-.31.21-.41.11-.51-.1Z" fill="#2569e6" opacity="1" data-original="#000000"></path></g></svg>