<svg xmlns="http://www.w3.org/2000/svg" version="1.1" xmlns:xlink="http://www.w3.org/1999/xlink" width="512" height="512" x="0" y="0" viewBox="0 0 512 512" style="enable-background:new 0 0 512 512" xml:space="preserve" class=""><g><path d="M254.206 38.442a7.505 7.505 0 0 0 7.505-7.505V7.505a7.505 7.505 0 1 0-15.01 0v23.432a7.505 7.505 0 0 0 7.505 7.505zM95.538 79.878c2.599 2.114 5.199 4.314 10.569.972a7.505 7.505 0 0 0 .973-10.568L87.387 46.599a7.505 7.505 0 0 0-11.542 9.596zM402.305 80.851c1.601 1.557 6.99 2.955 10.568-.972l19.693-23.684a7.504 7.504 0 1 0-11.54-9.596l-19.693 23.684a7.502 7.502 0 0 0 .972 10.568zM502.506 190.484h-34.615a7.504 7.504 0 0 0-7.505 7.505 7.504 7.504 0 0 0 7.505 7.505h34.615c4.145 0 7.505-3.359 7.505-7.505s-3.36-7.505-7.505-7.505zM44.109 190.484H9.494a7.505 7.505 0 1 0 0 15.01h34.615c4.145 0 7.505-3.359 7.505-7.505s-3.36-7.505-7.505-7.505zM483.092 316.297a7.505 7.505 0 0 0-5.09 9.313 83.351 83.351 0 0 1 3.351 23.463c0 45.886-37.331 83.216-83.216 83.216s-83.216-37.331-83.216-83.216c0-45.887 37.331-83.217 83.216-83.217 25.867 0 49.823 11.725 65.726 32.17a7.505 7.505 0 1 0 11.847-9.217c-14.489-18.625-34.645-31.11-57.128-35.839l26.917-30.088c2.56-2.985 4.32-8.239 1.428-13.769L388.555 108.01c-.93-1.969-6.043-7.395-12.696-7.333H136.144c-1.606.032-4.06.37-7.329 1.964-.162.497-1.195-.388-5.365 5.366L65.073 209.119c-1.864 3.485-2.563 8.901 1.419 13.756l180.524 202.187c2.218 1.932 8.778 7.993 17.596.009l40.3-45.045c12.996 39.041 49.874 67.273 93.224 67.273 54.161 0 98.226-44.064 98.226-98.226a98.334 98.334 0 0 0-3.957-27.686 7.507 7.507 0 0 0-9.313-5.09zM194.008 200.55l-48.995-84.862h97.991zm-5.622 22.514 49.594 169.344L86.781 223.064zm13.726-6.533 53.889-93.337 48.995 84.861h-68.608c-4.145 0-7.505 3.359-7.505 7.505s3.36 7.505 7.505 7.505h71.571l-52.124 176.911zm115.883-15.981-48.996-84.862h97.991zm61.993-77.357 48.995 84.861h-97.99zm-247.974-.001 48.995 84.862h-97.99zm141.708 269.185 49.886-169.313h101.59l-24.373 27.242a7.756 7.756 0 0 0-.462.572 103.08 103.08 0 0 0-2.227-.032c-54.161 0-98.226 44.064-98.226 98.227 0 4.427.3 8.785.87 13.059z" fill="#2569e6" opacity="1" data-original="#000000" class=""></path><path d="M397.587 412.812a7.504 7.504 0 0 0 7.505-7.505v-6.065c13.235-3.199 21.724-14.433 23.587-25.511 2.408-14.329-5.078-26.783-19.071-31.73-1.486-.525-3-1.071-4.516-1.636v-26.267c3.237 1.096 5.131 2.696 5.279 2.824l-.074-.067c6.764 5.972 16.346-2.952 10.87-10.124l-.694-.909c-.351-.324-6.043-5.445-15.381-7.19v-4.786c0-4.145-3.359-7.505-7.505-7.505s-7.505 3.359-7.505 7.505v5.312c-.597.149-1.2.314-1.811.498-9.273 2.794-16.199 10.715-18.076 20.671-1.719 9.123 1.234 17.944 7.707 23.02 3.144 2.466 6.994 4.727 12.179 7.085v34.428c-3.914-.477-6.769-1.705-11.3-4.669a7.507 7.507 0 0 0-10.847 2.972c-1.706 3.436-.372 7.64 2.845 9.73 7.514 4.881 12.818 6.539 19.302 7.048v5.365a7.507 7.507 0 0 0 7.506 7.506zm16.289-41.568c-.782 4.653-3.765 9.56-8.785 12.112v-27.017c9.828 3.758 9.218 12.332 8.785 14.905zm-26.711-39.705c-2.016-1.581-2.887-4.89-2.219-8.43.523-2.776 2.137-6.018 5.136-7.923v18.347a30.738 30.738 0 0 1-2.917-1.994zM299.388 443.051h-86.776c-29.235 0-53.019 23.784-53.019 53.019 0 8.784 7.146 15.93 15.929 15.93h20.941c4.145 0 7.505-3.359 7.505-7.505s-3.36-7.505-7.505-7.505h-20.941a.922.922 0 0 1-.92-.921c0-20.958 17.051-38.01 38.01-38.01h86.776c20.958 0 38.01 17.052 38.01 38.01a.922.922 0 0 1-.92.921H230.172c-4.145 0-7.505 3.359-7.505 7.505s3.36 7.505 7.505 7.505h106.306c8.784 0 15.93-7.146 15.93-15.93-.001-29.235-23.785-53.019-53.02-53.019z" fill="#2569e6" opacity="1" data-original="#000000" class=""></path></g></svg>