<svg xmlns="http://www.w3.org/2000/svg" version="1.1" xmlns:xlink="http://www.w3.org/1999/xlink" width="512" height="512" x="0" y="0" viewBox="0 0 512 512" style="enable-background:new 0 0 512 512" xml:space="preserve" class=""><g><path d="m507.64 153.07-52.78-52.78c-4.25-4.25-10.61-5.53-16.25-3.22-5.65 2.37-9.16 7.64-9.16 13.75v23.02h-49.57C363.6 95.26 331.43 63 288.71 42.61c-42.08-20.09-90.49-27.36-136.3-20.45-40.95 6.18-76.49 23.33-102.77 49.61C19.8 101.6 3.1 141.26.02 189.65c-.02.24-.02.48-.02.72 1.5 55.27 24.52 87.35 44.84 115.65 27.01 37.64 50.34 70.14 17.01 150.81-3.38 8.05-2.52 16.84 2.35 24.12 4.87 7.26 12.65 11.42 21.35 11.42H269.8c11.89 0 22.16-8.08 24.97-19.66l8.06-33.25c48.66 9.17 75.02 6.43 87.52-8.89 8.67-10.62 9.24-25.94 1.69-46.69 7.43-4.69 12.05-11.72 12.28-19.29.08-2.69-.41-7.89-4.49-12.9 3.75-3.34 6.75-7.63 7.85-12.65.57-2.62.74-5.88-.29-9.49 9.88-1.22 20.34-4.42 25.21-13.45 4.72-8.77 2.74-19.95-6.06-34.17-.15-.24-.31-.48-.49-.71-33.96-43.6-33.88-61.19-33.8-81.57.01-2.07.01-4.19-.01-6.35h37.2v23.04c0 6.06 3.62 11.46 9.16 13.72 1.87.78 3.83 1.17 5.77 1.17 3.86 0 7.63-1.51 10.49-4.36l52.78-52.78a14.81 14.81 0 0 0 4.36-10.58c-.01-3.95-1.57-7.68-4.36-10.44zm-131.37 46.55c-.09 22.32-.18 43.4 36.9 91.11 4.99 8.16 6.99 14.8 5.36 17.82-2.84 5.26-18.22 5.7-24.79 5.88l-.93.03c-3.3.1-6.19 2.21-7.3 5.31s-.19 6.57 2.31 8.73c1.82 1.58 4.8 4.6 4.24 7.16-.67 3.07-5.37 6.57-9.12 7.66-3.27.95-5.58 3.86-5.76 7.26s1.81 6.54 4.96 7.82c3.94 1.61 6.26 3.76 6.2 5.76-.07 2.51-3.27 6.25-9.04 8.22-2.1.72-3.81 2.28-4.72 4.31s-.93 4.35-.05 6.39c5.32 12.48 10.23 29.11 3.45 37.42-8.38 10.27-35.13 10.89-79.51 1.85a7.983 7.983 0 0 0-9.36 5.95l-9.86 40.67c-1.08 4.45-4.87 7.44-9.44 7.44H85.55c-3.43 0-6.14-1.46-8.07-4.33-1.88-2.82-2.19-5.95-.87-9.09 36.74-88.92 9.77-126.5-18.78-166.28-19.85-27.66-40.38-56.26-41.83-106.4C21.44 107.2 73.3 50.26 154.8 37.97c76.21-11.5 171.92 21.38 207.57 95.86h-85.19c-12.45-36.81-47.31-63.38-88.27-63.38-51.36 0-93.15 41.79-93.15 93.15 0 33.99 13.9 49.53 28.62 65.98 2.21 2.47 4.5 5.03 6.74 7.66 4.5 5.28 7.58 10.92 9.31 17.08-9.72 3.07-16.78 12.17-16.78 22.9 0 11.32 7.9 20.83 18.48 23.33v10.17c0 14.05 11.43 25.48 25.48 25.48h42.58c14.04 0 25.46-11.43 25.46-25.48v-10.17c10.58-2.49 18.48-12.01 18.48-23.34 0-10.72-7.06-19.83-16.77-22.9 1.73-6.15 4.81-11.79 9.33-17.07 2.25-2.63 4.53-5.19 6.75-7.66 9.56-10.69 18.78-21.01 24.06-36.25h98.77c.02 2.13.01 4.23 0 6.29zM147.66 285.2c-4.42 0-8.02-3.59-8.02-7.99 0-4.42 3.6-8.02 8.02-8.02H230.15c4.41 0 7.99 3.6 7.99 8.02 0 4.41-3.59 7.99-7.99 7.99zm72 15.99v9.52c0 5.24-4.25 9.5-9.47 9.5h-42.58c-5.24 0-9.5-4.26-9.5-9.5v-9.52zM163.1 178.22h-7.03c-3.86 0-7-3.14-7-7 0-3.88 3.14-7.03 7-7.03 3.88 0 7.03 3.15 7.03 7.03zm15.99 74.98v-58.99h19.62v58.99zm55.44-26.35c-6.75 7.89-11.23 16.73-13.37 26.34h-6.47V194.2h7c12.68 0 22.99-10.31 22.99-22.99 0-12.69-10.31-23.02-22.99-23.02s-22.99 10.33-22.99 23.02v7h-19.62v-7c0-12.69-10.33-23.02-23.02-23.02-12.68 0-22.99 10.33-22.99 23.02 0 12.68 10.31 22.99 22.99 22.99h7.03v58.99h-6.48c-2.15-9.61-6.62-18.45-13.35-26.33-2.37-2.78-4.72-5.4-6.99-7.95-13.71-15.33-24.54-27.44-24.54-55.32 0-42.55 34.61-77.16 77.16-77.16 35.8 0 65.98 24.51 74.65 57.64.02.06.03.12.05.17a77.21 77.21 0 0 1 2.46 19.35c0 27.88-10.83 39.99-24.54 55.32-2.27 2.55-4.62 5.18-6.98 7.94zm-19.83-48.63v-7c0-3.88 3.14-7.03 7-7.03s7 3.15 7 7.03c0 3.86-3.14 7-7 7zm230.74 35.5v-21.49c0-8.21-6.69-14.88-14.91-14.88H281.19c.55-4.23.85-8.79.85-13.75 0-4.68-.35-9.28-1.02-13.78h149.5c8.22 0 14.91-6.68 14.91-14.88v-21.46l50.12 50.12z" fill="#2569e6" opacity="1" data-original="#000000" class=""></path></g></svg>