<svg xmlns="http://www.w3.org/2000/svg" version="1.1" xmlns:xlink="http://www.w3.org/1999/xlink" width="512" height="512" x="0" y="0" viewBox="0 0 512 512" style="enable-background:new 0 0 512 512" xml:space="preserve" class=""><g><path d="M16 104h232a8 8 0 0 0 8-8V16a8 8 0 0 0-8-8H16a8 8 0 0 0-8 8v80a8 8 0 0 0 8 8zm8-80h216v64H24zM16 504h208a8 8 0 0 0 8-8v-80a8 8 0 0 0-8-8H16a8 8 0 0 0-8 8v80a8 8 0 0 0 8 8zm8-80h192v64H24z" fill="#2569e6" opacity="1" data-original="#000000" class=""></path><path d="M256 383.912c1.256 0 2.496.088 3.76.088a233.204 233.204 0 0 0 90.848-17.984A71.664 71.664 0 0 0 364 385.736a42.983 42.983 0 0 1 11.4 23.92A24 24 0 0 0 360 432v16c0 13.255 10.745 24 24 24 0 17.673 14.327 32 32 32s32-14.327 32-32c13.255 0 24-10.745 24-24v-16a24 24 0 0 0-15.424-22.344A41.999 41.999 0 0 1 467.736 386c25.223-25.963 27.128-66.659 4.44-94.864l29.48-29.48a8 8 0 0 0 0-11.312l-35.2-35.2a298.124 298.124 0 0 0-76-55.144H496a8 8 0 0 0 8-8V16h-16v128h-16V64h-16v80h-16V88h-16v56h-16V96h-16v48h-16v-32h-16v32h-7.4a297.932 297.932 0 0 0-96.504-16h-.184a295.935 295.935 0 0 0-210.488 87.264l-35.08 35.08a8 8 0 0 0 0 11.312l32.488 32.496C98.48 350.071 177.126 382.305 256 383.912zM54.152 282.832 27.312 256l29.424-29.424a280.364 280.364 0 0 1 120.8-71.472c-55.736 43.132-65.953 123.281-22.82 179.016a127.608 127.608 0 0 0 21.388 21.696 289.223 289.223 0 0 1-121.952-72.984zM416 488c-8.837 0-16-7.163-16-16h32c0 8.837-7.163 16-16 16zm40-40a8 8 0 0 1-8 8h-64a8 8 0 0 1-8-8v-16a8 8 0 0 1 8-8h64a8 8 0 0 1 8 8zm.24-73.128A57.936 57.936 0 0 0 440.568 408h-49.152a58.986 58.986 0 0 0-15.864-33.344c-21.39-22.339-20.62-57.788 1.719-79.177 22.339-21.39 57.788-20.62 79.177 1.719 20.816 21.739 20.724 56.046-.208 77.674zM484.688 256l-23.824 23.824c-30.955-24.861-76.203-19.921-101.064 11.034a71.89 71.89 0 0 0-14.936 33.654 73.29 73.29 0 0 0 .736 26.288 216.139 216.139 0 0 1-85.84 17.2c-2.4 0-4.8-.12-7.2-.176-61.794-1.809-110.421-53.37-108.612-115.164 1.773-60.548 51.39-108.701 111.964-108.66H256c61.827.071 111.929 50.173 112 112h16a127.736 127.736 0 0 0-49.6-100.952 279.86 279.86 0 0 1 120.72 71.392z" fill="#2569e6" opacity="1" data-original="#000000" class=""></path><path d="M410.344 77.656a8 8 0 0 0 11.312 0l56-56-11.312-11.312L416 60.688l-18.344-18.344a8 8 0 0 0-11.008-.288l-80 72 10.704 11.888 74.4-66.92zM56 48h120v16H56zM192 48h32v16h-32zM40 448h112v16H40zM256 184c-39.764 0-72 32.236-72 72s32.236 72 72 72 72-32.236 72-72c-.044-39.746-32.254-71.956-72-72zm0 128c-30.928 0-56-25.072-56-56s25.072-56 56-56 56 25.072 56 56c-.04 30.911-25.089 55.96-56 56zM168 448h32v16h-32z" fill="#2569e6" opacity="1" data-original="#000000" class=""></path></g></svg>