<?xml version="1.0" encoding="utf-8"?>
<!-- Generator: Adobe Illustrator 27.3.1, SVG Export Plug-In . SVG Version: 6.00 Build 0)  -->
<svg version="1.1" id="Layer_1" xmlns="http://www.w3.org/2000/svg" xmlns:xlink="http://www.w3.org/1999/xlink" x="0px" y="0px"
	 viewBox="0 0 512 512" style="enable-background:new 0 0 512 512;" xml:space="preserve">
<style type="text/css">
	.st0{fill:#2569E6;}
</style>
<g>
	<path class="st0" d="M287.3,465.9c0,3.4-2.8,6.2-6.2,6.2h-42.9c-3.4,0-6.2-2.8-6.2-6.2c0-3.4,2.8-6.2,6.2-6.2l0,0h42.9
		C284.5,459.7,287.3,462.5,287.3,465.9L287.3,465.9z M461.9,305c0.7,2.7-0.4,5.5-2.8,7l-14.2,8.4l13.1,48.8
		c2.3,8.8-2.9,17.8-11.6,20.1c-1.4,0.4-2.8,0.6-4.2,0.6c-7.3,0-13.9-4.8-15.9-12.2l-1.3-4.8c-3.9-2.3-10.2-5.5-19-8.4v94.6
		c0,28.4-23.1,51.4-51.4,51.4h-197c-28.4,0-51.4-23.1-51.4-51.4V346.2H34.2c-18,0-32.7-14.6-32.7-32.7v-76.9
		c0-18,14.6-32.7,32.7-32.7h71.9V52.9c0-28.4,23.1-51.4,51.4-51.4h197c28.4,0,51.4,23.1,51.4,51.4v162.3c2.2,0.3,4.3,1,6.3,2.1
		c3.8,2.2,6.5,5.7,7.7,10l13.1,48.8l16.5,0.1c2.8,0,5.2,1.9,5.9,4.6L461.9,305z M34.2,333.8h78.1c1.4,0,2.8,0.5,3.9,1.4l40.5,33.3
		V340c0-3.4,2.8-6.2,6.2-6.2h22.4c11.2,0,20.2-9.1,20.2-20.2v-76.9c0-11.2-9.1-20.2-20.2-20.2H34.2c-11.2,0-20.2,9.1-20.2,20.2v76.9
		C13.9,324.7,23,333.8,34.2,333.8z M393.5,361.2c-16.4-3.4-38.2-4.6-65.3,1.3c-3.2,0.7-6.3,1.5-9.5,2.3l21.2,36.6
		c4.9,8.5,2,19.3-6.5,24.2c-2.7,1.6-5.7,2.4-8.8,2.4c-6.1,0-12.1-3.2-15.4-8.9l-25.8-44.6l-0.2,0.1c-2.7,0.7-5.5,1.1-8.3,1.1
		c-5.7,0-11.3-1.5-16.4-4.5c-7.5-4.5-12.9-11.7-15.3-20.5c-2.3-8.7-1.3-17.7,3-25.4c4.3-7.6,11.3-13.1,19.7-15.3
		c5.1-1.4,10.2-2.7,15.2-3.9c9.8-2.5,20-5,29.8-8.1c51-16.3,72-45.8,78.5-57.3l-1.3-4.8c-1.1-4.2-0.5-8.7,1.7-12.5
		c1-1.7,2.2-3.1,3.7-4.4v-166c0-21.5-17.5-39-39-39h-197c-21.5,0-39,17.5-39,39V204h66.8c18,0,32.7,14.6,32.7,32.7v76.9
		c0,18-14.6,32.7-32.7,32.7h-16.2v35.5c0,3.4-2.8,6.2-6.2,6.2c-1.4,0-2.8-0.5-3.9-1.4l-40.5-33.3v105.9c0,21.5,17.5,39,39,39h197
		c21.5,0,39-17.5,39-39L393.5,361.2z M298.4,370.3l-2.6,0.7l24.2,41.8c1.5,2.5,4.7,3.4,7.2,1.9c2.5-1.5,3.4-4.7,1.9-7.2l-22.8-39.5
		C303.7,368.8,301,369.6,298.4,370.3L298.4,370.3z M319.2,351.8l-10.8-40.2c-8.1,2.4-16.3,4.5-24.3,6.5c-4.9,1.2-10.1,2.5-15,3.9
		c-5.2,1.4-9.4,4.7-12.1,9.4c-2.7,4.8-3.3,10.5-1.8,16.1c1.5,5.6,4.9,10.2,9.6,13c4.6,2.7,10,3.5,15.1,2.1c5-1.3,10.1-2.8,15-4.2
		C302.9,356.1,311,353.8,319.2,351.8L319.2,351.8z M420.6,356.6l-26.8-99.8c-15.8,21.6-42.2,40-73.5,51.1l11.1,41.3
		C364.1,343.1,396,345.8,420.6,356.6L420.6,356.6z M445.9,372.4l-38-141.9c-0.3-1-1-1.9-1.9-2.4c-0.6-0.4-1.3-0.5-2-0.5
		c-1.4,0-2.7,0.8-3.5,2c-0.5,0.9-0.7,2-0.4,3l38,141.9c0.6,2.1,2.8,3.4,4.9,2.8C445.2,376.7,446.5,374.5,445.9,372.4L445.9,372.4z
		 M448.7,303.6l-4-15l-8.3-0.1l5.2,19.3L448.7,303.6z M452.6,265.7c3,1.7,6.8,0.7,8.5-2.3c0,0,0,0,0,0l14.1-24.5
		c1.7-3,0.7-6.8-2.3-8.5c-3-1.7-6.7-0.7-8.4,2.3l-14.1,24.5C448.7,260.2,449.7,264,452.6,265.7C452.6,265.7,452.6,265.7,452.6,265.7
		z M510.3,279.1c-0.9-3.3-4.3-5.3-7.6-4.4l-27.3,7.3c-3.3,0.9-5.3,4.3-4.4,7.6c0,0,0,0,0,0c0.9,3.3,4.3,5.3,7.6,4.4l27.3-7.3
		C509.2,285.8,511.2,282.4,510.3,279.1z M500,331.4l-24.5-14.1c-3-1.7-6.8-0.7-8.5,2.3c-1.7,3-0.7,6.7,2.3,8.4l24.5,14.1
		c3,1.7,6.8,0.7,8.5-2.3c0,0,0,0,0,0C504,336.9,503,333.1,500,331.4C500,331.4,500,331.4,500,331.4L500,331.4z M292.8,114
		c0,4.9-2.5,9.2-6.7,11.6l-33.3,19.2c-2,1.2-4.4,1.8-6.7,1.8c-2.3,0-4.6-0.6-6.7-1.8c-4.2-2.4-6.7-6.8-6.7-11.7V94.8
		c0-4.9,2.5-9.2,6.7-11.7c4.2-2.4,9.2-2.4,13.5,0l33.3,19.2C290.3,104.8,292.8,109.2,292.8,114L292.8,114z M280.4,114
		c0-0.4-0.2-0.7-0.5-0.9l-33.3-19.2c-0.2-0.1-0.3-0.2-0.5-0.2c-0.2,0-0.4,0.1-0.5,0.1c-0.5,0.3-0.5,0.8-0.5,0.9v38.4
		c0,0.2,0,0.6,0.5,0.9c0.5,0.3,0.9,0.1,1,0l33.3-19.2C280,114.9,280.4,114.6,280.4,114z M323.4,183.3H188.6
		c-14.8,0-26.9-12.1-26.9-26.9V71.7c0-14.8,12.1-26.9,26.9-26.9h134.7c14.8,0,26.9,12.1,26.9,26.9v84.8
		C350.3,171.2,338.2,183.3,323.4,183.3L323.4,183.3z M188.6,170.9h134.7c8,0,14.5-6.5,14.5-14.5V71.7c0-8-6.5-14.5-14.5-14.5H188.6
		c-8,0-14.5,6.5-14.5,14.5v84.8C174.1,164.4,180.6,170.9,188.6,170.9L188.6,170.9z M45.5,252.2h128.4c3.4,0,6.2-2.8,6.2-6.2
		s-2.8-6.2-6.2-6.2H45.5c-3.4,0-6.2,2.8-6.2,6.2S42.1,252.2,45.5,252.2L45.5,252.2z M45.5,281.3h128.4c3.4,0,6.2-2.8,6.2-6.2
		s-2.8-6.2-6.2-6.2H45.5c-3.4,0-6.2,2.8-6.2,6.2S42.1,281.3,45.5,281.3L45.5,281.3z M118.5,304.2c0-3.4-2.8-6.2-6.2-6.2H45.5
		c-3.4,0-6.2,2.8-6.2,6.2c0,3.4,2.8,6.2,6.2,6.2h66.7C115.7,310.4,118.5,307.7,118.5,304.2L118.5,304.2z"/>
</g>
</svg>
