<svg xmlns="http://www.w3.org/2000/svg" version="1.1" xmlns:xlink="http://www.w3.org/1999/xlink" width="512" height="512" x="0" y="0" viewBox="0 0 512 512" style="enable-background:new 0 0 512 512" xml:space="preserve" class=""><g><path d="M480.31 271.55H337.42c-3.87 0-7 3.13-7 7v54.94c0 2.56 1.4 4.92 3.64 6.14a7.005 7.005 0 0 0 7.14-.25c3.04-1.95 6.55-2.98 10.17-2.98 10.43 0 18.91 8.48 18.91 18.91s-8.48 18.91-18.91 18.91c-3.62 0-7.13-1.03-10.17-2.97-2.15-1.38-4.89-1.48-7.14-.25s-3.64 3.58-3.64 6.14v45.64c0 3.87 3.13 7 7 7h69.22c3.87 0 7-3.13 7-7V403.7a151.042 151.042 0 0 0 51.32-50.27c13.89-22.41 21.62-48.24 22.35-74.68.05-1.89-.66-3.72-1.98-5.08s-3.13-2.12-5.02-2.12zm-77.07 121.98a7.003 7.003 0 0 0-3.6 6.12v16.13h-55.22v-28.29c2.27.49 4.59.74 6.94.74 18.15 0 32.91-14.76 32.91-32.91s-14.76-32.91-32.91-32.91c-2.35 0-4.68.25-6.94.74v-37.59h128.5c-3.68 44.99-29.89 85.9-69.68 107.97zm-19.53-148.34c3.75 0 6.84-2.96 7-6.7.06-1.48.06-2.91.06-4.29 0-13.89-1.89-27.55-5.6-40.76 3.18.33 6.41.51 9.68.51 50.99 0 92.47-41.48 92.47-92.47S445.83 9 394.84 9s-90.28 39.33-92.37 88.47c-19.23-8.68-40.31-13.24-61.66-13.24-3.87 0-7 3.13-7 7v45.54c-16.93 1.33-30.3 15.54-30.3 32.81s13.37 31.48 30.3 32.81v28.79h-39.77c-2.56 0-4.91 1.4-6.14 3.64a7.005 7.005 0 0 0 .25 7.14c1.95 3.04 2.98 6.55 2.98 10.17 0 10.44-8.48 18.94-18.91 18.94s-18.91-8.49-18.91-18.94c0-3.62 1.03-7.13 2.98-10.17 1.38-2.16 1.48-4.89.25-7.14s-3.58-3.64-6.14-3.64H97.93c-1.89 0-3.7.76-5.02 2.12s-2.03 3.19-1.98 5.08c.73 26.45 8.46 52.27 22.35 74.68a150.863 150.863 0 0 0 51.32 50.27v61.2c0 10.89 4.86 20.66 12.53 27.28 6.51 29.82 32.86 51.18 63.7 51.18s57.19-21.37 63.72-51.2c7.65-6.62 12.5-16.38 12.5-27.26v-42.12c0-3.87-3.13-7-7-7h-62.22v-28.29c2.28.49 4.61.74 6.97.74 18.15 0 32.91-14.76 32.91-32.91s-14.76-32.91-32.91-32.91c-2.36 0-4.7.25-6.97.73v-37.58h39.77c2.56 0 4.91-1.4 6.14-3.64a7.005 7.005 0 0 0-.25-7.14 18.783 18.783 0 0 1-2.98-10.17c0-10.43 8.48-18.91 18.91-18.91s18.91 8.48 18.91 18.91c0 3.64-1.02 7.16-2.95 10.17-1.38 2.16-1.48 4.89-.25 7.14s3.58 3.64 6.14 3.64zm11.14-222.18c43.26 0 78.46 35.2 78.46 78.46s-35.2 78.46-78.46 78.46-78.46-35.2-78.46-78.46 35.2-78.46 78.46-78.46zM240.82 489c-20.12 0-37.79-11.57-46.13-28.91 1.95.33 3.95.51 6 .51H281c2.04 0 4.03-.18 5.98-.5a51.145 51.145 0 0 1-46.15 28.91zm62.22-64.46c0 6.95-3.23 13.15-8.27 17.2-.51.29-.98.64-1.4 1.04-3.53 2.41-7.8 3.81-12.38 3.81h-80.31c-4.56 0-8.81-1.39-12.33-3.77-.45-.44-.96-.81-1.51-1.12-5.02-4.05-8.24-10.24-8.24-17.17v-35.12h124.44v35.12zm-48.25-128.49c10.43 0 18.91 8.48 18.91 18.91s-8.48 18.91-18.91 18.91c-3.63 0-7.16-1.03-10.2-2.97-2.15-1.38-4.89-1.48-7.14-.25s-3.64 3.58-3.64 6.14v38.64h-55.22V359.3c0-2.54-1.38-4.89-3.6-6.12-39.78-22.08-66-62.98-69.68-107.97h34.73c-.49 2.27-.74 4.59-.74 6.94 0 18.16 14.76 32.94 32.91 32.94s32.91-14.78 32.91-32.94c0-2.35-.25-4.68-.74-6.94h29.43v47.91c0 2.56 1.4 4.92 3.64 6.14a7.005 7.005 0 0 0 7.14-.25c3.01-1.93 6.53-2.95 10.2-2.95zm54.62-104.71c-18.15 0-32.91 14.76-32.91 32.91 0 2.35.25 4.68.74 6.94h-29.43v-36.06c0-2.07-.92-4.04-2.51-5.37s-3.69-1.88-5.73-1.52c-.95.17-2.01.26-3.15.26-10.43 0-18.91-8.48-18.91-18.91s8.48-18.91 18.91-18.91c1.14 0 2.2.09 3.15.26 2.04.37 4.14-.19 5.73-1.52s2.51-3.3 2.51-5.37V98.42c19.35.99 38.29 6.09 55.33 14.92 4.75 36.94 31.39 67.13 66.44 77.1 4.44 13.11 6.85 26.79 7.15 40.75h-35.14c.48-2.26.73-4.59.73-6.94 0-18.15-14.76-32.91-32.91-32.91zm-170.45-14.4c0-2.35-.25-4.68-.74-6.94h36.43c3.87 0 7-3.13 7-7v-43.09a7 7 0 0 0-8.22-6.89c-1.1.19-2.17.29-3.21.29-10.43 0-18.91-8.48-18.91-18.91s8.48-18.93 18.91-18.93c1.04 0 2.11.1 3.21.29 2.04.36 4.13-.2 5.72-1.53s2.5-3.29 2.5-5.36V16c0-3.87-3.13-7-7-7C91.96 9 24.69 76.27 24.69 158.96c0 1.38.03 2.79.06 4.17a6.997 6.997 0 0 0 7 6.85h42.12c-.48 2.26-.73 4.59-.73 6.94 0 18.15 14.76 32.91 32.91 32.91s32.91-14.76 32.91-32.91zm-51.82 0c0-3.64 1.02-7.16 2.95-10.17 1.38-2.15 1.48-4.89.25-7.14s-3.58-3.64-6.14-3.64H38.74C40.28 84.73 96.91 26.8 167.66 23.2v38.36c-16.95 1.32-30.33 15.54-30.33 32.84s13.39 31.49 30.33 32.81V156h-39.77c-2.56 0-4.91 1.4-6.14 3.64a7.005 7.005 0 0 0 .25 7.14c1.95 3.04 2.98 6.55 2.98 10.17 0 10.43-8.48 18.91-18.91 18.91s-18.91-8.48-18.91-18.91zM351.54 107c-2.73-2.73-2.73-7.17 0-9.9s7.17-2.74 9.9 0l20.25 20.25 46.55-46.58c2.73-2.73 7.17-2.74 9.9 0a6.99 6.99 0 0 1 0 9.9l-51.51 51.53a7.001 7.001 0 0 1-9.9 0l-25.2-25.2z" fill="#2569e6" opacity="1" data-original="#000000" class=""></path></g></svg>