<?xml version="1.0" encoding="utf-8"?>
<!-- Generator: Adobe Illustrator 27.3.1, SVG Export Plug-In . SVG Version: 6.00 Build 0)  -->
<svg version="1.1" id="Layer_1" xmlns="http://www.w3.org/2000/svg" xmlns:xlink="http://www.w3.org/1999/xlink" x="0px" y="0px"
	 viewBox="0 0 512 512" style="enable-background:new 0 0 512 512;" xml:space="preserve">
<style type="text/css">
	.st0{fill:#2569E6;}
</style>
<g>
	<path class="st0" d="M394.8,170.1h60.4c17.3,0,31.4-14.1,31.4-31.4V58.5c0-17.3-14.1-31.4-31.4-31.4h-75c-6.5-16.2-22.2-27-40-27
		H142.8c-23.8,0-43.1,19.3-43.1,43.1v158.1h-43c-17.3,0-31.4,14.1-31.4,31.4v80.2c0,17.3,14.1,31.4,31.4,31.4h43v124.6
		c0,23.8,19.3,43.1,43.1,43.1h197.4c23.8,0,43.1-19.3,43.1-43.1v-14h22.4c3.4,0,6.4-2.4,7.1-5.7l3.1-14.7l10.5-4.4l12.6,8.2
		c2.9,1.9,6.6,1.5,9-1l21-21c2.4-2.4,2.8-6.2,0.9-9l-8.2-12.6l4.3-10.5l14.7-3.1c3.3-0.7,5.7-3.7,5.7-7.1v-29.7
		c0-3.4-2.4-6.4-5.7-7.1l-14.7-3.1l-4.4-10.5l8.2-12.6c1.9-2.9,1.5-6.6-1-9l-21-21c-2.4-2.4-6.2-2.8-9-1l-12.6,8.2l-10.5-4.4
		l-3.1-14.7c-0.7-3.3-3.7-5.7-7.1-5.7h-22.4v-81.2L394.8,170.1z M472.2,58.5v80.2c0,9.4-7.6,17-17,17h-63.6c-2,0-3.9,0.8-5.2,2.3
		l-14.1,14.8v-9.9c0-4-3.2-7.2-7.2-7.2h-10.3c-9.4,0-17-7.6-17-17V58.5c0-9.4,7.6-17,17-17h100.4C464.6,41.5,472.2,49.1,472.2,58.5
		L472.2,58.5z M192.2,14.5h98.7v13.3c0,2-1.6,3.6-3.6,3.6h-91.5c-2,0-3.6-1.6-3.6-3.6L192.2,14.5L192.2,14.5z M39.8,312.9v-80.2
		c0-9.4,7.6-17,17-17h63.9c3,14.2,15.7,24.8,30.7,24.8h22.7v72.4c0,9.4-7.6,17-17,17h-10.3c-4,0-7.2,3.2-7.2,7.2v9.9l-14.1-14.8
		c-1.4-1.4-3.3-2.3-5.2-2.3H56.8C47.4,329.8,39.8,322.2,39.8,312.9L39.8,312.9z M151.4,226c-9.4,0-17-7.6-17-16.9v-80.3
		c0-9.4,7.6-17,17-17h100.4c9.4,0,17,7.6,17,17v80.3c0,9.3-7.6,16.9-17,16.9h-10.3c-4,0-7.2,3.2-7.2,7.2v9.9l-14.1-14.8
		c-1.4-1.4-3.3-2.3-5.2-2.3H151.4z M117.2,344.3l24.4,25.7c2.7,2.9,7.3,3,10.2,0.3c1.4-1.4,2.3-3.3,2.3-5.3v-20.8h3
		c17.3,0,31.4-14.1,31.4-31.4v-72.4h23.3l24.4,25.7c2.7,2.9,7.3,3,10.2,0.3c1.4-1.4,2.3-3.3,2.3-5.3v-20.8h3
		c17.3,0,31.4-14.1,31.4-31.4v-80.3c0-17.3-14.1-31.4-31.4-31.4H151.4c-17.3,0-31.4,14.1-31.4,31.4v72.4h-5.8V43.1
		c0-15.8,12.9-28.7,28.7-28.7h34.9v13.3c0,10,8.1,18.1,18.1,18.1h91.5c10,0,18.1-8.1,18.1-18.1V14.5h34.9c9.7,0,18.5,4.9,23.7,12.6
		h-9c-17.3,0-31.4,14.1-31.4,31.4v80.2c0,17.3,14.1,31.4,31.4,31.4h3v20.8c0,4,3.2,7.2,7.2,7.2c1.3,0,2.6-0.4,3.7-1.1v243.1H114.2
		v-95.9H117.2z M383.3,329.4c2.5-0.6,5-1,7.6-1c16.9,0,30.7,13.8,30.7,30.7c0,16.9-13.8,30.7-30.7,30.7c-2.6,0-5.1-0.3-7.6-1
		L383.3,329.4z M340.2,497.5H142.8c-15.8,0-28.7-12.9-28.7-28.7v-14.3h254.7v14.3C368.9,484.7,356,497.5,340.2,497.5z M399.9,277.9
		l2.7,12.7c0.5,2.3,2.1,4.3,4.3,5.2l17.6,7.3c2.2,0.9,4.7,0.7,6.7-0.6l10.9-7.1l12.7,12.7l-7.1,10.9c-1.3,2-1.5,4.5-0.6,6.7
		l7.3,17.6c0.9,2.2,2.8,3.8,5.2,4.3l12.7,2.7v18l-12.7,2.7c-2.3,0.5-4.3,2.1-5.2,4.3l-7.3,17.5c-0.9,2.2-0.7,4.7,0.6,6.7l7.1,10.9
		L442.1,423l-10.9-7.1c-2-1.3-4.5-1.5-6.7-0.6l-17.6,7.3c-2.2,0.9-3.8,2.8-4.3,5.2l-2.7,12.7h-16.6v-36.7c2.5,0.4,5,0.6,7.6,0.6
		c24.9,0,45.2-20.3,45.2-45.2c0-24.9-20.3-45.2-45.2-45.2c-2.6,0-5.1,0.2-7.6,0.6v-36.7L399.9,277.9L399.9,277.9z M130.2,315.8
		c4,0,7.2-3.2,7.2-7.2c0-0.3,0-0.7-0.1-1l-3.2-22.2l15.6-16.1c2.8-2.9,2.7-7.4-0.1-10.2c-1-1-2.4-1.7-3.8-1.9l-22.1-3.8l-10.5-19.8
		c-1.9-3.5-6.2-4.9-9.8-3c-1.3,0.7-2.3,1.7-3,3l-10.5,19.8L68,257.2c-3.9,0.7-6.6,4.4-5.9,8.3c0.2,1.4,0.9,2.8,1.9,3.8l15.6,16.1
		l-3.2,22.2c-0.4,2.7,0.7,5.3,2.9,6.9c2.2,1.6,5,1.8,7.4,0.6l20.1-9.9l20.1,9.9C128,315.6,129.1,315.8,130.2,315.8L130.2,315.8z
		 M119.4,283.9l1.8,12.1l-11-5.4c-2-1-4.4-1-6.4,0l-11,5.4l1.8-12.1c0.3-2.2-0.4-4.5-2-6.1l-8.5-8.8l12.1-2.1
		c2.2-0.4,4.1-1.8,5.2-3.7l5.7-10.9l5.7,10.9c1,2,3,3.4,5.2,3.7l12.1,2.1l-8.5,8.8C119.8,279.5,119,281.7,119.4,283.9z M401.7,136.7
		c2.1,1.1,4.6,1.1,6.6,0c37-19.1,41.1-39.7,40.3-50.3c-0.9-11.6-8.8-21.9-19.7-25.5c-8.8-2.9-17.7-1-24,5.2
		c-6.3-6.2-15.2-8.2-24-5.2c-10.9,3.6-18.8,13.9-19.7,25.5C360.6,97,364.7,117.6,401.7,136.7L401.7,136.7z M375.8,87.6
		c0.5-6.8,5.3-11.4,9.8-12.9c0.9-0.3,2.1-0.6,3.4-0.6c2,0,4.4,0.7,6.4,3l4.2,4.7c2.6,3,7.2,3.3,10.2,0.7c0.2-0.2,0.5-0.4,0.7-0.7
		l4.1-4.7c3.4-3.8,7.6-3.1,9.8-2.4c4.5,1.5,9.3,6.1,9.8,12.9c0.9,11.3-9.7,23.7-29.2,34.5C385.5,111.3,374.9,98.9,375.8,87.6z
		 M205.6,386.3c0-4,3.2-7.2,7.2-7.2c4,0,7.2,3.2,7.2,7.2c0,4-3.2,7.2-7.2,7.2C208.8,393.6,205.6,390.3,205.6,386.3z M234.3,386.3
		c0-4,3.2-7.2,7.2-7.2c4,0,7.2,3.2,7.2,7.2c0,4-3.2,7.2-7.2,7.2C237.5,393.6,234.3,390.3,234.3,386.3z M263.1,386.3
		c0-4,3.2-7.2,7.2-7.2c4,0,7.2,3.2,7.2,7.2c0,4-3.2,7.2-7.2,7.2C266.3,393.6,263.1,390.3,263.1,386.3z M235.8,204.3l10.2-38
		c0.8-3,0.2-6.2-1.7-8.7c-1.9-2.5-4.9-4-8-4h-21.4v-17.4c0-5.5-4.5-10.1-10.1-10.1h-1.2c-3.7,0-7,1.9-8.8,5.2l-11.4,20.5
		c-1-0.3-2.1-0.5-3.1-0.5h-13c-5.7,0-10.3,4.6-10.3,10.3v38c0,5.7,4.6,10.3,10.3,10.3h13c2.3,0,4.4-0.8,6.1-2l4.9,2.8
		c1.1,0.6,2.3,1,3.6,1h31.2C230.6,211.7,234.6,208.7,235.8,204.3L235.8,204.3z M176.1,195.5h-4.7v-29.7h4.7V195.5z M196.8,197.3
		l-6.3-3.6v-24.9l9.9-17.8v9.9c0,4,3.2,7.2,7.2,7.2h22.9l-7.8,29.2L196.8,197.3z M268.8,476.1c0,4-3.2,7.2-7.2,7.2h-40.1
		c-4,0-7.2-3.2-7.2-7.2c0-4,3.2-7.2,7.2-7.2h40.1C265.6,468.8,268.8,472.1,268.8,476.1z"/>
</g>
</svg>
