<svg xmlns="http://www.w3.org/2000/svg" version="1.1" xmlns:xlink="http://www.w3.org/1999/xlink" width="512" height="512" x="0" y="0" viewBox="0 0 510 510" style="enable-background:new 0 0 512 512" xml:space="preserve" fill-rule="evenodd" class=""><g><path d="m342.721 79.562-76.201 76.202a7.004 7.004 0 0 1-9.899 0 7.004 7.004 0 0 1 0-9.9l76.201-76.201-8.657-20.928a7.001 7.001 0 0 1 1.519-7.626l31.059-31.059a7 7 0 0 1 11.418 2.274l6.437 15.562 4.133-4.133a7.005 7.005 0 0 1 9.9 0 7.004 7.004 0 0 1 0 9.9l-4.133 4.133 15.562 6.437a6.998 6.998 0 0 1 2.274 11.418l-31.059 31.06a7 7 0 0 1-7.626 1.518zm21.16-40.958-4.65-11.243-20.342 20.342 4.65 11.243zm-10.442 30.241 11.242 4.651 20.342-20.342-11.242-4.651zm32.216 387.481c-12.096-.396-25.017-1.31-35.215-3.408-8.687-1.788-15.575-4.641-19.385-8.201-3.237-3.025-4.269-8.568-1.285-15.506 1.774-4.126 4.903-9.208 7.611-14.257 1.994-3.716 3.956-7.308 3.956-10.283v-37.053c0-28.912 18.42-53.555 44.153-62.831a23.749 23.749 0 0 1-.748-5.929c0-13.099 10.635-23.734 23.734-23.734 13.1 0 23.734 10.635 23.734 23.734 0 2.137-.283 4.209-.813 6.179 25.376 9.462 43.471 33.924 43.471 62.581v37.053c0 2.296 1.286 5.018 2.73 7.932 3.038 6.133 7.261 12.65 9.472 17.727 1.437 3.299 2.103 6.251 2.024 8.538-.105 3.068-1.26 5.501-3.294 7.343-3.841 3.478-10.909 6.18-19.833 7.748-10.073 1.769-22.762 2.383-34.67 2.586v7.247c0 12.595-10.225 22.821-22.821 22.821-12.595 0-22.821-10.226-22.821-22.821zm31.642.313c-3.405-.002-6.59-.016-9.445-.016-2.524 0-5.279-.005-8.197-.028v7.197c0 4.868 3.953 8.821 8.821 8.821 4.869 0 8.821-3.953 8.821-8.821zm-8.821-167.515c-5.372 0-9.734 4.362-9.734 9.734 0 5.373 4.362 9.734 9.734 9.734 5.373 0 9.734-4.361 9.734-9.734 0-5.372-4.361-9.734-9.734-9.734zm-15.301 27.872c-21.863 6.444-37.838 26.683-37.838 50.622v37.053c0 3.511-1.185 7.653-3.139 11.945-2.281 5.009-5.608 10.363-8.055 15.013-.669 1.272-1.361 2.98-1.808 4.141 3.912 2.368 10.51 3.595 18.011 4.632 15.479 2.142 34.644 2.221 47.506 2.221 12.803 0 32.486.334 48.411-1.432 5.902-.654 11.253-1.58 15.41-2.993 1.07-.363 2.047-.736 2.891-1.158-.484-1.246-1.228-3.061-1.947-4.419-2.579-4.872-6.075-10.489-8.47-15.696-2.043-4.443-3.279-8.703-3.279-12.254v-37.053c0-23.738-15.707-43.837-37.288-50.457a23.633 23.633 0 0 1-15.104 5.431 23.634 23.634 0 0 1-15.301-5.596zM90.326 272.805a7.003 7.003 0 0 1-8.391 5.252 7.002 7.002 0 0 1-5.253-8.39c10.029-43.605 35.1-81.493 69.455-107.888a196.42 196.42 0 0 1 2.928-2.205 7.004 7.004 0 0 1 9.789 1.475 7.002 7.002 0 0 1-1.475 9.789c-.911.673-1.815 1.354-2.712 2.043-31.821 24.448-55.052 59.535-64.341 99.924zm262.645 189.548c3.297-2.014 7.609-.973 9.623 2.324s.972 7.609-2.325 9.623c-28.762 17.57-62.557 27.7-98.698 27.7-26.639 0-52.003-5.504-75.017-15.433a7.005 7.005 0 0 1-3.654-9.201 7.004 7.004 0 0 1 9.2-3.654C213.412 482.907 236.901 488 261.571 488c33.469 0 64.765-9.377 91.4-25.647zm14.015-290.603a7.003 7.003 0 0 1-1.39-9.802 7.003 7.003 0 0 1 9.801-1.39c40.461 30.411 68.381 76.62 74.58 129.43a7.004 7.004 0 0 1-6.137 7.768 7.002 7.002 0 0 1-7.768-6.136c-5.741-48.912-31.612-91.704-69.086-119.87zm-37.239-64.81c-2.095-3.246-1.161-7.582 2.085-9.677s7.583-1.16 9.678 2.086c9.576 14.838 15.138 32.507 15.138 51.465 0 52.474-42.603 95.077-95.077 95.077-52.475 0-95.078-42.603-95.078-95.077 0-52.475 42.603-95.077 95.078-95.077 17.769 0 34.406 4.886 48.642 13.385a7.004 7.004 0 0 1 2.422 9.599 7.004 7.004 0 0 1-9.599 2.422c-12.134-7.245-26.318-11.406-41.465-11.406-44.748 0-81.078 36.329-81.078 81.077s36.33 81.077 81.078 81.077c44.747 0 81.077-36.329 81.077-81.077 0-16.161-4.738-31.224-12.901-43.874zm-23.606 19.691a7.003 7.003 0 0 1 2.801-9.495 7.003 7.003 0 0 1 9.495 2.801c4.997 9.179 7.839 19.699 7.839 30.877 0 35.712-28.993 64.706-64.705 64.706-35.713 0-64.706-28.994-64.706-64.706s28.993-64.706 64.706-64.706c11.089 0 21.53 2.797 30.657 7.72a7.004 7.004 0 0 1 2.838 9.484 7.003 7.003 0 0 1-9.484 2.838 50.44 50.44 0 0 0-24.011-6.042c-27.986 0-50.706 22.721-50.706 50.706s22.72 50.706 50.706 50.706c27.985 0 50.705-22.721 50.705-50.706 0-8.755-2.221-16.994-6.135-24.183zm-24.343 22.08a7.003 7.003 0 0 1 6.249-7.677 7.004 7.004 0 0 1 7.678 6.249c.119 1.161.18 2.339.18 3.531 0 18.949-15.385 34.334-34.334 34.334-18.95 0-34.335-15.385-34.335-34.334 0-18.95 15.385-34.334 34.335-34.334 1.2 0 2.386.061 3.555.182a7.003 7.003 0 0 1 6.243 7.682 7.003 7.003 0 0 1-7.682 6.244 20.547 20.547 0 0 0-2.116-.108c-11.223 0-20.335 9.111-20.335 20.334s9.112 20.334 20.335 20.334c11.222 0 20.334-9.111 20.334-20.334 0-.71-.036-1.411-.107-2.103zM124.532 279.348c57.196 0 103.632 46.436 103.632 103.633 0 57.196-46.436 103.632-103.632 103.632-57.197 0-103.633-46.436-103.633-103.632 0-57.197 46.436-103.633 103.633-103.633zm0 14c-49.47 0-89.633 40.163-89.633 89.633 0 49.469 40.163 89.632 89.633 89.632 49.469 0 89.632-40.163 89.632-89.632 0-49.47-40.163-89.633-89.632-89.633zm55.985 135.718a7.005 7.005 0 0 1 0 9.9 7.005 7.005 0 0 1-9.9 0l-9.098-9.099a7.002 7.002 0 0 1 0-9.899 7.002 7.002 0 0 1 9.899 0zm-48.985 26.089c0 3.864-3.137 7-7 7-3.864 0-7-3.136-7-7v-12.867c0-3.863 3.136-7 7-7 3.863 0 7 3.137 7 7zm-79.175-65.174c-3.864 0-7-3.137-7-7 0-3.864 3.136-7 7-7h12.867c3.864 0 7 3.136 7 7 0 3.863-3.136 7-7 7zm26.089 48.985a7.004 7.004 0 0 1-9.899 0 7.004 7.004 0 0 1 0-9.9l9.098-9.098a7.004 7.004 0 0 1 9.9 0 7.004 7.004 0 0 1 0 9.899zm118.26-62.985c3.864 0 7 3.136 7 7 0 3.863-3.136 7-7 7h-12.867c-3.863 0-7-3.137-7-7 0-3.864 3.137-7 7-7zm-79.174-65.175c0-3.864 3.136-7 7-7 3.863 0 7 3.136 7 7v12.867c0 3.864-3.137 7-7 7-3.864 0-7-3.136-7-7zm9.522 84.596c-.815.165-1.659.252-2.522.252-6.995 0-12.674-5.679-12.674-12.673 0-4.408 2.255-8.293 5.674-10.564v-27.032c0-3.864 3.136-7 7-7 3.863 0 7 3.136 7 7v27.032c3.418 2.271 5.673 6.156 5.673 10.564 0 .863-.087 1.707-.252 2.522l11.938 11.937c2.732 2.732 2.732 7.168 0 9.9s-7.168 2.732-9.9 0zm43.563-68.406a7.004 7.004 0 0 1 9.9 0 7.004 7.004 0 0 1 0 9.899l-9.099 9.099a7.004 7.004 0 0 1-9.899 0 7.004 7.004 0 0 1 0-9.9zm-102.07 9.899a7.002 7.002 0 0 1 0-9.899 7.002 7.002 0 0 1 9.899 0l9.099 9.098a7.005 7.005 0 0 1 0 9.9 7.005 7.005 0 0 1-9.9 0z" fill="#2569e6" opacity="1" data-original="#000000" class=""></path></g></svg>