<svg xmlns="http://www.w3.org/2000/svg" version="1.1" xmlns:xlink="http://www.w3.org/1999/xlink" width="512" height="512" x="0" y="0" viewBox="0 0 64 64" style="enable-background:new 0 0 512 512" xml:space="preserve" class=""><g><g data-name="web design-browser-programing-coding-mobilephone"><path d="M59 2H5a3.009 3.009 0 0 0-3 3v42a3.009 3.009 0 0 0 3 3h33v7a5 5 0 0 0 5 5h14a5 5 0 0 0 5-5V5a3.009 3.009 0 0 0-3-3zm1 55a3.009 3.009 0 0 1-3 3H43a3.009 3.009 0 0 1-3-3v-1h20zm0-3H40V32h20zm0-24H40v-1a3.009 3.009 0 0 1 3-3h14a3.009 3.009 0 0 1 3 3zm0-4.97A4.924 4.924 0 0 0 57 24H43a5 5 0 0 0-5 5v19H5a1 1 0 0 1-1-1V12h56zM60 10H4V5a1 1 0 0 1 1-1h54a1 1 0 0 1 1 1z" fill="#2569e6" opacity="1" data-original="#000000" class=""></path><path d="M8 6H7a1 1 0 0 0 0 2h1a1 1 0 0 0 0-2zM12 6h-1a1 1 0 0 0 0 2h1a1 1 0 0 0 0-2zM16 6h-1a1 1 0 0 0 0 2h1a1 1 0 0 0 0-2zM35 18H7a1 1 0 0 0-1 1v22a1 1 0 0 0 1 1h28a1 1 0 0 0 1-1V19a1 1 0 0 0-1-1zM8.8 40 17 26.89 25.2 40zm18.75 0-2.18-3.5L28 32.74 33.08 40zM34 37.83l-5.18-7.4a1 1 0 0 0-1.64 0l-2.96 4.23-6.37-10.19a1.048 1.048 0 0 0-1.7 0L8 37.51V20h26z" fill="#2569e6" opacity="1" data-original="#000000" class=""></path><path d="M25 28a3 3 0 1 0-3-3 3 3 0 0 0 3 3zm0-4a1 1 0 1 1-1 1 1 1 0 0 1 1-1zM57 6H22a1 1 0 0 0 0 2h35a1 1 0 0 0 0-2zM51 57h-2a1 1 0 0 0 0 2h2a1 1 0 0 0 0-2zM51 27h-2a1 1 0 0 0 0 2h2a1 1 0 0 0 0-2zM46.707 38.293a1 1 0 0 0-1.414 0l-4 4a1 1 0 0 0 0 1.414l4 4a1 1 0 0 0 1.414-1.414L43.414 43l3.293-3.293a1 1 0 0 0 0-1.414zM58.707 42.293l-4-4a1 1 0 0 0-1.414 1.414L56.586 43l-3.293 3.293a1 1 0 1 0 1.414 1.414l4-4a1 1 0 0 0 0-1.414zM52.274 35.039a1 1 0 0 0-1.236.686l-4 14a1 1 0 0 0 .688 1.236A.962.962 0 0 0 48 51a1 1 0 0 0 .961-.725l4-14a1 1 0 0 0-.687-1.236z" fill="#2569e6" opacity="1" data-original="#000000" class=""></path></g></g></svg>