<svg xmlns="http://www.w3.org/2000/svg" version="1.1" xmlns:xlink="http://www.w3.org/1999/xlink" width="512" height="512" x="0" y="0" viewBox="0 0 512 512" style="enable-background:new 0 0 512 512" xml:space="preserve" class=""><g><path d="M256 116.7c31.6 0 57.4-25.7 57.4-57.4S287.6 2 256 2s-57.4 25.7-57.4 57.4 25.8 57.3 57.4 57.3zm0-98.3c22.6 0 41 18.4 41 41s-18.4 41-41 41-41-18.4-41-41 18.4-41 41-41zM89.9 206.8c25.4 0 46-20.6 46-46s-20.6-46-46-46-46 20.6-46 46 20.6 46 46 46zm0-75.6c16.3 0 29.6 13.3 29.6 29.6s-13.3 29.6-29.6 29.6-29.6-13.3-29.6-29.6 13.2-29.6 29.6-29.6zM422.1 206.8c25.4 0 46-20.6 46-46s-20.6-46-46-46-46 20.6-46 46c.1 25.4 20.7 46 46 46zm0-75.6c16.3 0 29.6 13.3 29.6 29.6s-13.3 29.6-29.6 29.6-29.6-13.3-29.6-29.6 13.3-29.6 29.6-29.6z" fill="#2569e6" opacity="1" data-original="#000000"></path><path d="M496.8 243.1c-10.4-12.6-26.7-19.9-44.5-19.9H392c-7.4 0-14.6 1.4-21.3 3.9v-20.3c0-35.1-25-65.5-59.4-72.3l-6.4-1.3-27.3 61.9-4.3-45.7h7.4V133h-49.1v16.4h7.4l-4.3 45.6-27.3-61.9-6.4 1.3c-34.4 6.8-59.4 37.2-59.4 72.3V227c-6.7-2.4-13.9-3.9-21.3-3.9H59.7c-17.9 0-34.1 7.2-44.5 19.9C6.7 253.4 2 266.4 2 279.8v106.9h32.8V510h114.7V386.7h24.6v-56.9h8.2V510h147.5V329.7h8.2v56.9h29.1V510h114.7V386.7H510V279.8c0-13.4-4.7-26.4-13.2-36.7zm-241.5-93.6h1.5l7.3 76.3-8 18.1-8-18.1zm-97.6 220.8h-24.6v123.3h-32.8v-90.1H83.9v90.1H51.2V370.3H18.4v-90.5c0-9.6 3.3-18.9 9.4-26.3 7.3-8.8 18.9-13.9 31.9-13.9H120c7.6 0 15 2 21.3 5.4v84.8h16.4zm155.7-56.9v180.3h-49.2V378.9h-16.4v114.7h-49.2V313.4h-41V206.8c0-25.1 16.4-47.1 39.9-54.6L256 284.5l58.4-132.3c23.5 7.5 39.9 29.5 39.9 54.6v106.5h-40.9zm180.2 56.9h-28.2v123.3h-32.8v-90.1h-16.4v90.1h-32.8V370.3h-29.1v-40.5h16.4V245c6.3-3.4 13.6-5.4 21.3-5.4h60.3c13 0 24.6 5.1 31.9 13.9 6.1 7.4 9.4 16.7 9.4 26.3z" fill="#2569e6" opacity="1" data-original="#000000"></path><path d="M75.7 256h24.6v16.4H75.7zM411.7 256h24.6v16.4h-24.6z" fill="#2569e6" opacity="1" data-original="#000000"></path></g></svg>