<svg xmlns="http://www.w3.org/2000/svg" version="1.1" xmlns:xlink="http://www.w3.org/1999/xlink" width="512" height="512" x="0" y="0" viewBox="0 0 512 512" style="enable-background:new 0 0 512 512" xml:space="preserve" class=""><g><path d="M286.217 458.917a6 6 0 0 1-6 6h-41.438a6 6 0 0 1 0-12h41.438a6 6 0 0 1 6 6zm168.82-155.559a5.999 5.999 0 0 1-2.75 6.722l-13.743 8.098 12.647 47.2c2.267 8.458-2.771 17.185-11.23 19.452-1.372.367-2.75.543-4.107.543-7.013 0-13.447-4.686-15.346-11.774l-1.254-4.679c-3.731-2.204-9.875-5.335-18.33-8.082v91.444c0 27.415-22.303 49.718-49.718 49.718H160.792c-27.415 0-49.718-22.303-49.718-49.718V343.211H41.561c-17.403 0-31.562-14.159-31.562-31.562v-74.307c0-17.403 14.159-31.562 31.562-31.562h69.513V59.718c0-27.415 22.303-49.718 49.718-49.718h190.415c27.415 0 49.718 22.303 49.718 49.718v156.867c2.126.248 4.203.922 6.117 2.026 3.681 2.125 6.311 5.546 7.406 9.634l12.647 47.201 15.95.141a5.999 5.999 0 0 1 5.742 4.447zM41.561 331.211h75.513c1.39 0 2.737.483 3.811 1.366l39.167 32.212v-27.578a6 6 0 0 1 6-6h21.623c10.786 0 19.562-8.775 19.562-19.562v-74.307c0-10.786-8.775-19.562-19.562-19.562H41.561c-10.786 0-19.562 8.775-19.562 19.562v74.307c0 10.787 8.776 19.562 19.562 19.562zm347.363 26.449c-15.846-3.323-36.972-4.46-63.109 1.253a279.56 279.56 0 0 0-9.178 2.184l20.446 35.413c4.72 8.176 1.909 18.668-6.267 23.389a17.022 17.022 0 0 1-8.532 2.29c-5.922 0-11.689-3.07-14.856-8.557l-24.894-43.116-.192.052a31.12 31.12 0 0 1-8.067 1.069c-5.503 0-10.93-1.482-15.807-4.38-7.268-4.319-12.514-11.341-14.773-19.771-2.259-8.429-1.226-17.133 2.909-24.508 4.13-7.367 10.885-12.625 19.021-14.805 4.903-1.314 9.888-2.567 14.709-3.779 9.515-2.392 19.354-4.865 28.767-7.864 49.327-15.716 69.643-44.266 75.917-55.386l-1.254-4.68c-1.095-4.087-.528-8.366 1.597-12.046a15.916 15.916 0 0 1 3.564-4.232V59.718c0-20.798-16.92-37.718-37.718-37.718H160.792c-20.798 0-37.718 16.92-37.718 37.718v146.064h64.601c17.403 0 31.562 14.159 31.562 31.562v74.307c0 17.403-14.159 31.562-31.562 31.562h-15.623v34.281a6 6 0 0 1-9.812 4.634l-39.167-32.212v102.368c0 20.798 16.92 37.718 37.718 37.718h190.415c20.798 0 37.718-16.92 37.718-37.718zm-91.948 8.825-2.503.712 23.346 40.436a5.127 5.127 0 0 0 6.996 1.875 5.128 5.128 0 0 0 1.875-6.997l-22.051-38.193c-2.572.719-5.129 1.446-7.663 2.167zm20.156-17.875-10.403-38.823c-7.838 2.301-15.757 4.308-23.471 6.247-4.776 1.201-9.715 2.442-14.529 3.731-4.984 1.335-9.124 4.561-11.659 9.082-2.595 4.628-3.229 10.146-1.785 15.534s4.751 9.85 9.313 12.561c4.455 2.648 9.653 3.37 14.638 2.036 4.815-1.291 9.716-2.686 14.455-4.035 7.648-2.177 15.505-4.407 23.441-6.333zm97.933 4.676-25.859-96.506c-15.315 20.904-40.743 38.671-71.033 49.354l10.699 39.928c31.575-5.895 62.479-3.222 86.193 7.224zm24.536 15.198L402.856 231.35a3.851 3.851 0 0 0-1.815-2.347 3.893 3.893 0 0 0-1.95-.529 3.856 3.856 0 0 0-3.339 1.946 3.851 3.851 0 0 0-.398 2.94l36.745 137.134c.544 2.032 2.72 3.289 4.756 2.746 2.033-.545 3.29-2.723 2.746-4.756zm2.664-66.426-3.889-14.512-8.059-.072 5.004 18.675zm3.81-36.691a6 6 0 0 0 8.197-2.196l13.653-23.648a6 6 0 0 0-10.392-6l-13.653 23.648a5.998 5.998 0 0 0 2.195 8.196zm55.72 12.963a6 6 0 0 0-7.348-4.243l-26.376 7.067a5.999 5.999 0 0 0-4.243 7.348 6.003 6.003 0 0 0 7.349 4.243l26.376-7.067a6 6 0 0 0 4.242-7.348zm-9.93 50.543-23.648-13.653a6 6 0 0 0-6 10.392l23.648 13.653a5.997 5.997 0 0 0 8.196-2.196 5.999 5.999 0 0 0-2.196-8.196zM291.587 118.778c0 4.696-2.434 8.905-6.51 11.259l-32.155 18.564a13.006 13.006 0 0 1-6.515 1.767c-2.23 0-4.459-.586-6.49-1.758-4.067-2.348-6.495-6.56-6.495-11.267v-37.129c0-4.707 2.428-8.918 6.494-11.267 4.067-2.348 8.929-2.345 13.005.008l32.155 18.564c4.078 2.354 6.511 6.563 6.511 11.259zm-11.999 0a.94.94 0 0 0-.511-.866l-32.155-18.564a1.026 1.026 0 0 0-.514-.149.973.973 0 0 0-.491.14c-.495.286-.495.729-.495.875v37.129c0 .146 0 .589.495.875.495.285.88.063 1.005-.009l32.155-18.564c.126-.074.511-.295.511-.867zm41.53 66.964H190.881c-14.336 0-26-11.664-26-26V77.814c0-14.336 11.664-26 26-26h130.237c14.336 0 26 11.664 26 26v81.927c-.001 14.337-11.664 26.001-26 26.001zm-130.237-12h130.237c7.719 0 14-6.28 14-14V77.814c0-7.719-6.28-14-14-14H190.881c-7.72 0-14 6.28-14 14v81.927c0 7.72 6.28 14.001 14 14.001zm-138.318 78.63h124.109a6 6 0 0 0 0-12H52.563a6 6 0 0 0 0 12zm0 28.125h124.109a6 6 0 0 0 0-12H52.563a6 6 0 0 0 0 12zm70.511 22.125a6 6 0 0 0-6-6H52.563a6 6 0 0 0 0 12h64.511a6 6 0 0 0 6-6z" fill="#2569e6" opacity="1" data-original="#000000" class=""></path></g></svg>